<svg width="170" height="90" viewBox="0 0 170 90" fill="none" xmlns="http://www.w3.org/2000/svg">
<rect y="0.43335" width="170" height="89.2" rx="40" fill="#FBEBD7"/>
<g clip-path="url(#clip0_2070_754)">
<path fill-rule="evenodd" clip-rule="evenodd" d="M91.6751 48.9979C91.6751 49.2266 91.6372 49.4934 91.5992 49.684C91.2579 50.6751 90.3477 51.3232 89.2857 51.3232C88.3375 51.3232 87.6169 50.7895 87.6169 49.6459C87.6169 47.8924 89.5133 47.4349 91.713 47.4349V48.9979H91.6751ZM95.0885 45.9483C95.0885 43.0892 93.8748 40.5352 89.7408 40.5352C87.6169 40.5352 85.9102 41.1451 85 41.6788L85.6827 44.0041C86.7446 43.3942 87.9204 43.0511 89.134 43.013C91.2579 43.013 91.5992 44.1947 91.5992 44.9571V45.1477C87.0101 45.1477 84.1277 46.7488 84.1277 49.989C84.1277 51.9712 85.6068 53.8391 88.1858 53.8391C89.7408 53.8391 91.0683 53.2292 91.8647 52.1999H91.9406C91.9406 52.1999 92.4715 54.4109 95.354 53.5723C95.2023 52.6574 95.1264 51.6663 95.1264 50.5227V45.9483H95.0885ZM25 36.6088L28.4893 50.942C29.0582 53.2673 30.0442 54.1441 32.9267 53.5723L34.7851 45.9483C35.2402 44.0422 35.5815 42.708 35.885 40.7639H35.9229C36.1504 42.708 36.4539 44.0422 36.8331 45.9483L37.9709 51.2469C38.3881 53.0767 39.4501 54.2203 42.2946 53.5723L46.732 36.6469H43.129L41.6119 43.966C41.1947 46.1007 40.8154 47.778 40.5499 49.7221C40.2844 47.778 39.9431 46.177 39.5259 44.1185L37.9709 36.6469H34.2162L32.5095 43.9279C32.0544 46.1389 31.5992 47.9305 31.2958 49.7984H31.2579C30.9545 48.0449 30.5752 45.7958 30.158 43.661L28.7927 36.6088H25ZM53.3312 48.9979C53.3312 49.2266 53.3312 49.4934 53.2554 49.684C52.914 50.6751 52.0038 51.3232 50.9418 51.3232C49.9937 51.3232 49.2731 50.7895 49.2731 49.6459C49.2731 47.8924 51.1694 47.4349 53.3692 47.4349V48.9979H53.3312ZM56.7826 45.9483C56.7826 43.0892 55.5689 40.5352 51.4349 40.5352C49.311 40.5352 47.6043 41.1451 46.6941 41.6788L47.3767 44.0041C48.4387 43.3942 49.6144 43.0511 50.8281 43.013C52.952 43.013 53.2933 44.1947 53.2933 44.9571V45.1477C48.7042 45.1477 45.8217 46.7488 45.8217 49.989C45.8217 51.9712 47.3009 53.8391 49.8799 53.8391C51.4349 53.8391 52.7623 53.2292 53.5588 52.1999H53.6346C53.6346 52.1999 54.1656 54.4109 57.048 53.5723C56.8963 52.6574 56.8205 51.6663 56.8205 50.5227V45.9483H56.7826ZM62.0544 49.9509V36.6088H58.641V53.5342H62.0544V49.9509ZM105.594 36.6469V49.1122C105.594 50.8276 105.898 52.0475 106.618 52.7717C107.225 53.4198 108.211 53.8391 109.387 53.8391C110.411 53.8391 111.397 53.6485 111.852 53.4579L111.814 50.7514C111.473 50.8657 111.056 50.9039 110.525 50.9039C109.349 50.9039 108.97 50.1796 108.97 48.6167V43.8898H111.966V40.6496H108.97V36.6088L105.594 36.6469ZM96.7573 40.8402V53.5723H100.284V47.0537C100.284 46.7107 100.322 46.4057 100.36 46.1007C100.626 44.7284 101.65 43.8516 103.167 43.8516C103.584 43.8516 103.85 43.8898 104.191 43.9279V40.5733C103.925 40.5352 103.66 40.4971 103.432 40.4971C102.105 40.4971 100.626 41.3357 99.981 43.2036H99.9052V40.802L96.7573 40.8402ZM64.0645 40.8402V53.5723H67.4779V46.1007C67.4779 45.7577 67.5158 45.3765 67.6296 45.0715C67.8951 44.3091 68.6157 43.4323 69.7155 43.4323C71.1188 43.4323 71.7636 44.614 71.7636 46.2913V53.5342H75.2149V45.9864C75.2149 45.6433 75.2528 45.224 75.3666 44.9571C75.6321 44.0422 76.5044 43.3942 77.4526 43.3942C78.8559 43.3942 79.5386 44.5378 79.5386 46.5582V53.5342H82.9899V46.0626C82.9899 42.1362 80.9798 40.5352 78.7421 40.5352C77.7181 40.5352 76.9595 40.802 76.2389 41.2214C75.6321 41.6026 75.1011 42.1362 74.646 42.8224H74.6081C74.0392 41.412 72.6359 40.4971 71.1188 40.5352C69.6018 40.459 68.1606 41.2214 67.4399 42.5556H67.402V40.8402H64.0645Z" fill="#2C2E33"/>
<path fill-rule="evenodd" clip-rule="evenodd" d="M130.436 40.2683C131.119 40.2683 131.688 39.8871 131.764 39.4678L132.408 31.8057C132.408 31.0433 131.536 30.4333 130.436 30.4333C129.336 30.4333 128.464 31.0433 128.464 31.8057L129.147 39.4678C129.185 39.9253 129.753 40.2683 130.436 40.2683ZM126.302 42.6699C126.643 42.06 126.605 41.4119 126.264 41.107L120.006 36.7232C119.361 36.342 118.375 36.7994 117.844 37.7524C117.276 38.7054 117.389 39.8109 118.034 40.154L124.975 43.3942C125.392 43.5467 125.999 43.2417 126.302 42.6699ZM134.532 42.6318C134.874 43.2417 135.442 43.5467 135.898 43.3561L142.8 40.1159C143.445 39.7347 143.559 38.6673 142.99 37.7143C142.421 36.7613 141.473 36.3038 140.828 36.685L134.57 41.107C134.229 41.4119 134.191 42.06 134.532 42.6318ZM130.436 49.7984C131.119 49.7984 131.688 50.1796 131.764 50.5989L132.408 58.261C132.408 59.0234 131.536 59.6333 130.436 59.6333C129.336 59.6333 128.464 59.0234 128.464 58.261L129.147 50.5989C129.185 50.1414 129.753 49.7984 130.436 49.7984ZM134.532 47.4349C134.874 46.825 135.442 46.52 135.898 46.6725L142.8 49.9127C143.445 50.2939 143.559 51.3613 142.99 52.3143C142.421 53.2673 141.473 53.7247 140.828 53.3435L134.57 48.9597C134.229 48.6929 134.191 48.0067 134.532 47.4349ZM126.302 47.4349C126.643 48.0067 126.605 48.6929 126.264 48.9978L120.006 53.3817C119.361 53.7629 118.375 53.3054 117.844 52.3524C117.276 51.3994 117.389 50.332 118.034 49.9508L124.975 46.7106C125.392 46.52 125.999 46.825 126.302 47.4349ZM144.279 52.6955H144.355C144.431 52.6955 144.507 52.6574 144.507 52.6192C144.507 52.543 144.469 52.543 144.393 52.543H144.317V52.6955H144.279ZM144.279 53.0386H144.128V52.4286H144.355C144.469 52.4286 144.507 52.4286 144.583 52.4668C144.621 52.5049 144.659 52.543 144.659 52.5811C144.659 52.6574 144.621 52.6955 144.545 52.7336C144.621 52.7717 144.659 52.8099 144.659 52.8861C144.659 53.0005 144.697 53.0005 144.697 53.0386H144.545C144.507 53.0005 144.507 52.9623 144.507 52.8861C144.507 52.8099 144.469 52.8099 144.393 52.8099H144.317L144.279 53.0386ZM144.355 52.238C144.09 52.238 143.9 52.4668 143.9 52.7336C143.9 53.0005 144.09 53.2292 144.355 53.2292C144.621 53.2292 144.81 53.0005 144.81 52.7336C144.848 52.4668 144.621 52.238 144.355 52.238ZM144.355 52.1237C144.697 52.1237 144.962 52.3905 144.962 52.7336C144.962 53.0767 144.697 53.3435 144.355 53.3435C144.014 53.3435 143.71 53.0767 143.71 52.7336C143.748 52.3905 144.014 52.1237 144.355 52.1237Z" fill="#2C2E33"/>
</g>
<defs>
<clipPath id="clip0_2070_754">
<rect width="120" height="29.2" fill="white" transform="translate(25 30.4333)"/>
</clipPath>
</defs>
</svg>
