<svg width="170" height="89" viewBox="0 0 170 89" fill="none" xmlns="http://www.w3.org/2000/svg">
<rect width="170" height="88.0317" rx="40" fill="#FBEBD7"/>
<path d="M54.1107 42.0022C48.397 38.6052 38.9724 38.2928 33.5179 39.9501C32.642 40.2161 31.7158 39.7211 31.4504 38.8442C31.1849 37.9669 31.6789 37.0403 32.5554 36.7737C38.8168 34.8708 49.2252 35.2385 55.803 39.1474C56.591 39.6155 56.8495 40.6341 56.3823 41.4218C55.915 42.2104 54.8966 42.4703 54.1107 42.0022ZM53.9236 47.0335C53.5229 47.6848 52.6724 47.8888 52.0228 47.4892C47.2593 44.5578 39.9955 43.7086 34.3599 45.4212C33.629 45.6423 32.8571 45.2298 32.6352 44.4995C32.4149 43.7678 32.8272 42.9964 33.5567 42.774C39.9946 40.8183 47.9978 41.7655 53.4689 45.1315C54.1186 45.532 54.323 46.3839 53.9236 47.0335ZM51.7547 51.8655C51.4363 52.3883 50.756 52.5523 50.2357 52.2336C46.0732 49.6868 40.834 49.1115 34.664 50.5225C34.0693 50.659 33.4768 50.2859 33.3411 49.6908C33.205 49.0956 33.5761 48.5025 34.1721 48.3667C40.9242 46.8214 46.7162 47.4865 51.3883 50.3446C51.9092 50.663 52.0732 51.3443 51.7547 51.8655ZM43.6256 26.2706C33.8362 26.2706 25.8999 34.2152 25.8999 44.0156C25.8999 53.8168 33.8362 61.7612 43.6256 61.7612C53.4154 61.7612 61.3512 53.8168 61.3512 44.0156C61.3512 34.2152 53.4154 26.2706 43.6256 26.2706Z" fill="#2C2E33"/>
<path d="M74.1251 42.6525C71.0646 41.9219 70.5196 41.409 70.5196 40.3318C70.5196 39.3136 71.4772 38.6287 72.9008 38.6287C74.2809 38.6287 75.6491 39.1489 77.084 40.2199C77.1274 40.2523 77.1818 40.2652 77.2353 40.2568C77.2889 40.2487 77.3361 40.2195 77.3676 40.175L78.862 38.0661C78.9234 37.9794 78.9066 37.8595 78.8239 37.7932C77.1164 36.4215 75.1936 35.7547 72.9461 35.7547C69.6416 35.7547 67.3334 37.7398 67.3334 40.5805C67.3334 43.6267 69.3245 44.7052 72.7654 45.5377C75.694 46.2131 76.1882 46.7787 76.1882 47.7903C76.1882 48.911 75.1887 49.6078 73.5803 49.6078C71.794 49.6078 70.3367 49.0054 68.7067 47.5921C68.6662 47.5574 68.6108 47.5413 68.5596 47.5442C68.5058 47.5487 68.4565 47.5737 68.4222 47.615L66.7466 49.6113C66.6764 49.6942 66.6853 49.8179 66.7663 49.8895C68.6631 51.5846 70.9954 52.48 73.5125 52.48C77.0734 52.48 79.3744 50.5321 79.3744 47.5173C79.3744 44.9695 77.8538 43.5604 74.1251 42.6525Z" fill="#2C2E33"/>
<path d="M90.0157 46.0673C90.0157 48.2188 88.6919 49.72 86.7965 49.72C84.9226 49.72 83.5091 48.1506 83.5091 46.0673C83.5091 43.9844 84.9226 42.4146 86.7965 42.4146C88.6615 42.4146 90.0157 43.9504 90.0157 46.0673ZM87.4308 39.6308C85.8874 39.6308 84.6214 40.2394 83.5774 41.4864V40.0828C83.5774 39.972 83.4877 39.8817 83.377 39.8817H80.6368C80.5261 39.8817 80.4365 39.972 80.4365 40.0828V55.6792C80.4365 55.79 80.5261 55.8802 80.6368 55.8802H83.377C83.4877 55.8802 83.5774 55.79 83.5774 55.6792V50.7563C84.6216 51.9294 85.8878 52.5023 87.4308 52.5023C90.2987 52.5023 93.2019 50.2922 93.2019 46.0673C93.2019 41.8415 90.2987 39.6308 87.4308 39.6308Z" fill="#2C2E33"/>
<path d="M100.643 49.7425C98.679 49.7425 97.198 48.1624 97.198 46.0673C97.198 43.9634 98.6278 42.4366 100.598 42.4366C102.575 42.4366 104.066 44.0167 104.066 46.1132C104.066 48.2168 102.627 49.7425 100.643 49.7425ZM100.643 39.6308C96.9501 39.6308 94.0566 42.478 94.0566 46.1132C94.0566 49.709 96.9302 52.5263 100.598 52.5263C104.305 52.5263 107.207 49.6887 107.207 46.0673C107.207 42.458 104.325 39.6308 100.643 39.6308Z" fill="#2C2E33"/>
<path d="M115.094 39.8817H112.079V36.7951C112.079 36.6843 111.989 36.5942 111.879 36.5942H109.139C109.028 36.5942 108.938 36.6843 108.938 36.7951V39.8817H107.62C107.51 39.8817 107.42 39.9719 107.42 40.0828V42.4405C107.42 42.5513 107.51 42.6415 107.62 42.6415H108.938V48.7425C108.938 51.208 110.163 52.458 112.581 52.458C113.564 52.458 114.379 52.2548 115.148 51.8185C115.21 51.7836 115.249 51.7162 115.249 51.6445V49.3993C115.249 49.3299 115.213 49.2647 115.154 49.2282C115.094 49.1908 115.02 49.1889 114.959 49.2192C114.431 49.485 113.921 49.6078 113.35 49.6078C112.471 49.6078 112.079 49.2083 112.079 48.3126V42.6415H115.094C115.205 42.6415 115.294 42.5513 115.294 42.4405V40.0828C115.294 39.9719 115.205 39.8817 115.094 39.8817Z" fill="#2C2E33"/>
<path d="M125.601 39.8937V39.5146C125.601 38.3994 126.028 37.9021 126.986 37.9021C127.557 37.9021 128.016 38.0156 128.53 38.1873C128.593 38.2072 128.659 38.1973 128.711 38.1593C128.764 38.1214 128.793 38.0606 128.793 37.9962V35.6843C128.793 35.5959 128.737 35.5178 128.652 35.4919C128.109 35.3302 127.414 35.1641 126.374 35.1641C123.843 35.1641 122.505 36.591 122.505 39.2892V39.8698H121.188C121.078 39.8698 120.987 39.9598 120.987 40.0707V42.4405C120.987 42.5513 121.078 42.6415 121.188 42.6415H122.505V52.052C122.505 52.1628 122.594 52.2529 122.705 52.2529H125.445C125.556 52.2529 125.646 52.1628 125.646 52.052V42.6415H128.204L132.124 52.0495C131.679 53.038 131.241 53.2347 130.644 53.2347C130.161 53.2347 129.653 53.0903 129.133 52.8056C129.084 52.7786 129.026 52.7742 128.973 52.7905C128.921 52.8091 128.877 52.848 128.855 52.899L127.926 54.939C127.882 55.0353 127.92 55.1486 128.012 55.1986C128.982 55.7243 129.857 55.9487 130.939 55.9487C132.963 55.9487 134.081 55.0049 135.067 52.4663L139.821 40.1675C139.845 40.1056 139.838 40.0359 139.8 39.9808C139.763 39.9266 139.702 39.8937 139.635 39.8937H136.782C136.697 39.8937 136.621 39.948 136.593 40.0283L133.67 48.3853L130.469 40.0228C130.44 39.945 130.365 39.8937 130.282 39.8937H125.601Z" fill="#2C2E33"/>
<path d="M119.51 39.8817H116.77C116.659 39.8817 116.569 39.972 116.569 40.0828V52.052C116.569 52.1629 116.659 52.2529 116.77 52.2529H119.51C119.62 52.2529 119.711 52.1629 119.711 52.052V40.0828C119.711 39.972 119.62 39.8817 119.51 39.8817Z" fill="#2C2E33"/>
<path d="M118.154 34.4318C117.068 34.4318 116.187 35.3118 116.187 36.3985C116.187 37.4859 117.068 38.3668 118.154 38.3668C119.239 38.3668 120.119 37.4859 120.119 36.3985C120.119 35.3118 119.239 34.4318 118.154 34.4318Z" fill="#2C2E33"/>
<path d="M142.273 41.0723H141.771V41.7133H142.273C142.524 41.7133 142.673 41.5905 142.673 41.3926C142.673 41.1841 142.524 41.0723 142.273 41.0723ZM142.599 41.9867L143.144 42.7513H142.684L142.193 42.05H141.771V42.7513H141.386V40.7246H142.289C142.759 40.7246 143.068 40.9656 143.068 41.3711C143.068 41.7032 142.877 41.9063 142.599 41.9867ZM142.171 40.0503C141.183 40.0503 140.436 40.8363 140.436 41.7991C140.436 42.7613 141.178 43.5369 142.161 43.5369C143.149 43.5369 143.897 42.7513 143.897 41.7881C143.897 40.8259 143.154 40.0503 142.171 40.0503ZM142.161 43.73C141.076 43.73 140.232 42.8579 140.232 41.7991C140.232 40.7401 141.087 39.8581 142.171 39.8581C143.255 39.8581 144.1 40.7301 144.1 41.7881C144.1 42.8471 143.245 43.73 142.161 43.73Z" fill="#2C2E33"/>
</svg>
