<svg width="170" height="90" viewBox="0 0 170 90" fill="none" xmlns="http://www.w3.org/2000/svg">
<rect y="0.861694" width="170" height="89.11" rx="40" fill="#FBEBD7"/>
<g clip-path="url(#clip0_2070_786)">
<path fill-rule="evenodd" clip-rule="evenodd" d="M98.2418 54.7548C91.8495 59.4608 82.5843 61.9717 74.6071 61.9717C63.4218 61.9717 53.3522 57.8395 45.7341 50.9669C45.1356 50.4265 45.6718 49.69 46.3901 50.1109C54.6115 54.8887 64.7769 57.763 75.2775 57.763C82.3593 57.763 90.1497 56.2995 97.3129 53.2626C98.395 52.8035 99.3 53.9704 98.2418 54.7548Z" fill="#2C2E33"/>
<path fill-rule="evenodd" clip-rule="evenodd" d="M100.899 51.7178C100.085 50.6752 95.4983 51.2252 93.4394 51.4691C92.8121 51.5456 92.7163 51.0004 93.2813 50.6083C96.9348 48.04 102.93 48.7813 103.629 49.6422C104.328 50.5078 103.447 56.51 100.014 59.3748C99.4869 59.8148 98.9841 59.5804 99.2187 58.9969C99.9897 57.0743 101.718 52.7652 100.899 51.7178Z" fill="#2C2E33"/>
<path fill-rule="evenodd" clip-rule="evenodd" d="M93.5831 32.4774V29.9809C93.5831 29.603 93.8704 29.3495 94.2152 29.3495H105.405C105.764 29.3495 106.052 29.6078 106.052 29.9809V32.1187C106.047 32.4774 105.745 32.9461 105.209 33.6874L99.4104 41.9565C101.565 41.9039 103.84 42.2243 105.793 43.3243C106.234 43.573 106.353 43.9365 106.387 44.2952V46.9591C106.387 47.3226 105.985 47.7482 105.563 47.5282C102.121 45.7252 97.5478 45.5291 93.7411 47.5474C93.3533 47.7578 92.9463 47.3369 92.9463 46.9734V44.4435C92.9463 44.0369 92.9511 43.3434 93.3581 42.7265L100.076 33.1039H94.2295C93.8704 33.1039 93.5831 32.8504 93.5831 32.4774Z" fill="#2C2E33"/>
<path fill-rule="evenodd" clip-rule="evenodd" d="M52.763 48.0543H49.3586C49.033 48.0304 48.7744 47.7865 48.7505 47.4756V30.0239C48.7505 29.6748 49.0426 29.3974 49.4065 29.3974H52.5811C52.9115 29.4117 53.1748 29.6652 53.1988 29.9809V32.2622H53.261C54.0894 30.0574 55.6455 29.0291 57.7428 29.0291C59.8735 29.0291 61.2047 30.0574 62.1623 32.2622C62.9859 30.0574 64.8581 29.0291 66.8644 29.0291C68.2913 29.0291 69.8522 29.6174 70.8051 30.9374C71.8824 32.4056 71.6622 34.5387 71.6622 36.4087L71.6574 47.423C71.6574 47.7721 71.3653 48.0543 71.0014 48.0543H67.6017C67.2618 48.0304 66.9889 47.7578 66.9889 47.423V38.1735C66.9889 37.4369 67.0559 35.6004 66.8931 34.9022C66.6393 33.7304 65.878 33.4004 64.8916 33.4004C64.068 33.4004 63.2062 33.9504 62.8566 34.8304C62.5071 35.7104 62.5406 37.1835 62.5406 38.1735V47.423C62.5406 47.7721 62.2485 48.0543 61.8846 48.0543H58.485C58.1402 48.0304 57.8721 47.7578 57.8721 47.423L57.8673 38.1735C57.8673 36.2269 58.1881 33.3622 55.77 33.3622C53.3233 33.3622 53.419 36.1552 53.419 38.1735V47.423C53.419 47.7721 53.1269 48.0543 52.763 48.0543Z" fill="#2C2E33"/>
<path fill-rule="evenodd" clip-rule="evenodd" d="M115.686 29.0291C120.737 29.0291 123.471 33.3622 123.471 38.8717C123.471 44.1948 120.45 48.4178 115.686 48.4178C110.725 48.4178 108.024 44.0848 108.024 38.6852C108.024 33.2522 110.758 29.0291 115.686 29.0291ZM115.714 32.5922C113.205 32.5922 113.047 36.0069 113.047 38.1352C113.047 40.2682 113.014 44.8213 115.686 44.8213C118.324 44.8213 118.448 41.1482 118.448 38.91C118.448 37.4369 118.386 35.6769 117.941 34.2804C117.558 33.0656 116.796 32.5922 115.714 32.5922Z" fill="#2C2E33"/>
<path fill-rule="evenodd" clip-rule="evenodd" d="M130.021 48.0543H126.631C126.291 48.0304 126.018 47.7578 126.018 47.423L126.014 29.9665C126.042 29.6461 126.325 29.3974 126.67 29.3974H129.825C130.122 29.4117 130.366 29.6126 130.433 29.8852V32.5539H130.495C131.448 30.1674 132.784 29.0291 135.135 29.0291C136.663 29.0291 138.152 29.5791 139.109 31.0856C140 32.4822 140 34.8304 140 36.5187V47.5043C139.962 47.8104 139.679 48.0543 139.344 48.0543H135.93C135.619 48.0304 135.36 47.8008 135.327 47.5043V38.0252C135.327 36.1169 135.547 33.3239 133.196 33.3239C132.368 33.3239 131.606 33.8787 131.228 34.7204C130.749 35.7869 130.687 36.8487 130.687 38.0252V47.423C130.682 47.7721 130.385 48.0543 130.021 48.0543Z" fill="#2C2E33"/>
<path fill-rule="evenodd" clip-rule="evenodd" d="M84.6622 39.7182C84.6622 41.043 84.6957 42.1478 84.0254 43.3243C83.4843 44.2808 82.6224 44.8691 81.6696 44.8691C80.3624 44.8691 79.5963 43.8743 79.5963 42.406C79.5963 39.5078 82.1963 38.9817 84.6622 38.9817V39.7182ZM88.0954 48.0065C87.8703 48.2073 87.5447 48.2217 87.2909 48.0878C86.1609 47.1504 85.955 46.7152 85.3373 45.8208C83.4699 47.7243 82.1436 48.2934 79.7255 48.2934C76.8574 48.2934 74.6309 46.5286 74.6309 42.9943C74.6309 40.2347 76.1248 38.3552 78.2603 37.4369C80.1086 36.6239 82.6894 36.4804 84.6622 36.2556V35.8156C84.6622 35.0073 84.7244 34.0508 84.2456 33.3526C83.8338 32.726 83.039 32.4678 82.3351 32.4678C81.0375 32.4678 79.8835 33.1326 79.601 34.51C79.5436 34.816 79.3185 35.1173 79.0073 35.1317L75.7082 34.7778C75.4305 34.7156 75.1193 34.4908 75.2007 34.0652C75.9572 30.0669 79.5771 28.8617 82.8139 28.8617C84.4707 28.8617 86.635 29.3017 87.9421 30.5547C89.5989 32.0995 89.4409 34.1608 89.4409 36.4039V41.703C89.4409 43.2956 90.1016 43.9939 90.7241 44.8547C90.9396 45.1608 90.9875 45.5291 90.7097 45.7586C90.0154 46.3373 88.7801 47.4134 88.1001 48.016L88.0954 48.0065Z" fill="#2C2E33"/>
<path fill-rule="evenodd" clip-rule="evenodd" d="M40.0313 39.7182C40.0313 41.043 40.0649 42.1478 39.3945 43.3243C38.8534 44.2808 37.9963 44.8691 37.0387 44.8691C35.7315 44.8691 34.9702 43.8743 34.9702 42.406C34.9702 39.5078 37.5702 38.9817 40.0313 38.9817V39.7182ZM43.4645 48.0065C43.2395 48.2073 42.9139 48.2217 42.6601 48.0878C41.5301 47.1504 41.3289 46.7152 40.7065 45.8208C38.8391 47.7243 37.5175 48.2934 35.0947 48.2934C32.2313 48.2934 30 46.5286 30 42.9943C30 40.2347 31.4987 38.3552 33.6295 37.4369C35.4777 36.6239 38.0586 36.4804 40.0313 36.2556V35.8156C40.0313 35.0073 40.0936 34.0508 39.6196 33.3526C39.203 32.726 38.4081 32.4678 37.709 32.4678C36.4114 32.4678 35.2527 33.1326 34.9702 34.51C34.9127 34.816 34.6877 35.1173 34.3812 35.1317L31.0774 34.7778C30.7996 34.7156 30.4932 34.4908 30.5698 34.0652C31.3311 30.0669 34.9462 28.8617 38.1831 28.8617C39.8398 28.8617 42.0041 29.3017 43.3113 30.5547C44.968 32.0995 44.81 34.1608 44.81 36.4039V41.703C44.81 43.2956 45.4708 43.9939 46.0932 44.8547C46.3135 45.1608 46.3614 45.5291 46.0837 45.7586C45.3894 46.3373 44.154 47.4134 43.4741 48.016L43.4645 48.0065Z" fill="#2C2E33"/>
</g>
<defs>
<clipPath id="clip0_2070_786">
<rect width="110" height="33.11" fill="white" transform="translate(30 28.8617)"/>
</clipPath>
</defs>
</svg>
