<svg width="122" height="231" viewBox="0 0 122 231" fill="none" xmlns="http://www.w3.org/2000/svg">
<circle cx="6.48891" cy="115.371" r="115.371" fill="#E0B15F"/>
<path d="M6.48862 1.52588e-05C21.6394 1.52588e-05 36.6418 2.98418 50.6393 8.78214C64.6368 14.5801 77.3552 23.0783 88.0684 33.7915C98.7816 44.5047 107.28 57.2231 113.078 71.2206C118.876 85.2181 121.86 100.22 121.86 115.371C121.86 130.522 118.876 145.524 113.078 159.522C107.28 173.519 98.7816 186.238 88.0684 196.951C77.3552 207.664 64.6368 216.162 50.6393 221.96C36.6418 227.758 21.6394 230.742 6.48862 230.742L6.48862 115.371L6.48862 1.52588e-05Z" fill="#D8A13F"/>
<path d="M23.8729 180.784C27.3821 184.936 38.0038 186.357 42.876 186.548L15.9085 164.486C17.1011 168.189 20.3637 176.632 23.8729 180.784Z" fill="#8D5A2F" stroke="#8D5A2F" stroke-linecap="round"/>
<path d="M64.8278 118.551C34.726 132.546 -9.39433 128.934 -28.7877 123.33C-42.9619 120.528 -62.8057 120.891 -28.7877 144.756C13.7349 174.588 72.2447 136.186 79.3317 128.44C86.0742 121.07 83.617 109.815 64.8278 118.551Z" fill="#8D5A2F" stroke="#8D5A2F" stroke-linecap="round"/>
<path d="M4.34641 48.6207C-17.8049 49.5437 -35.0996 40.4349 -40.978 35.7651C-57.3497 27.9638 -81.7865 20.635 -48.5595 53.73C-7.0259 95.0988 73.5691 99.7137 80.3266 91.6377C87.0841 83.5617 79.0081 73.6728 54.4505 76.8043C29.8929 79.9358 32.0355 47.467 4.34641 48.6207Z" fill="#8D5A2F" stroke="#8D5A2F" stroke-linecap="round"/>
<path d="M22.6405 29.3373C22.1131 11.8009 0.00580215 4.88962 -10.9819 3.62603C34.1117 -6.79035 72.9644 20.0527 86.754 34.7763C91.6935 40.0504 84.4795 49.1482 77.3595 40.0504C70.2394 30.9525 54.9445 38.1275 48.187 42.8522C39.8913 45.6541 23.1679 46.8738 22.6405 29.3373Z" fill="#8D5A2F" stroke="#8D5A2F" stroke-linecap="round"/>
<path d="M5.93451 193.995C-4.48186 206.257 -20.491 204.158 -27.1935 201.576C-41.972 195.643 -87.0219 181.304 -61.8049 170.591C-46.726 164.185 -30.9843 173.393 -25.7102 181.304C-20.4361 189.215 -15.8213 180.15 -6.59151 183.776C2.99832 187.544 11.2086 187.237 5.93451 193.995Z" fill="#8D5A2F" stroke="#8D5A2F" stroke-linecap="round"/>
<path d="M99.853 150.4C107.256 164.685 99.2503 178.706 94.3219 183.932C83.233 195.362 59.3513 215.423 52.5355 204.228C44.0158 190.234 66.8024 176.765 76.1218 174.88C85.4412 172.996 95.608 160.773 85.6513 158.122C75.6947 155.472 95.5967 142.96 99.853 150.4Z" fill="#8D5A2F" stroke="#8D5A2F" stroke-linecap="round"/>
<path d="M22.4702 96.5822C22.4702 97.2164 21.9561 97.7304 21.322 97.7304C20.6879 97.7304 20.1738 97.2164 20.1738 96.5822C20.1738 95.9481 20.6879 95.4341 21.322 95.4341C21.9561 95.4341 22.4702 95.9481 22.4702 96.5822Z" fill="#8D5A2F" stroke="#8D5A2F"/>
<circle cx="50.989" cy="166.794" r="1.14816" fill="#8D5A2F" stroke="#8D5A2F"/>
<path d="M101.582 110.097C101.582 110.731 101.068 111.245 100.434 111.245C99.7997 111.245 99.2856 110.731 99.2856 110.097C99.2856 109.463 99.7997 108.949 100.434 108.949C101.068 108.949 101.582 109.463 101.582 110.097Z" fill="#8D5A2F" stroke="#8D5A2F"/>
<path d="M38.7468 208.876C24.6385 207.03 13.8595 217.336 10.2336 222.72C1.49833 234.422 35.4504 219.424 35.1208 217.776C34.7912 216.127 46.6579 210.524 38.7468 208.876Z" fill="#8D5A2F"/>
</svg>
