<svg width="170" height="90" viewBox="0 0 170 90" fill="none" xmlns="http://www.w3.org/2000/svg">
<rect width="170" height="89.2453" rx="40" fill="#FBEBD7"/>
<g clip-path="url(#clip0_2070_838)">
<path d="M45.8302 34.6924V42.6877H38.4849V34.6924H35V53.7783H38.4858V46.0424H45.8292V53.7783H49.316V34.6924H45.8302ZM60.4736 47.6094C60.4736 48.3744 60.1697 49.1081 59.6288 49.649C59.0878 50.19 58.3542 50.4939 57.5892 50.4939C56.8242 50.4939 56.0905 50.19 55.5495 49.649C55.0086 49.1081 54.7047 48.3744 54.7047 47.6094V39.434H51.3981V47.6094C51.3981 49.2498 52.0497 50.8229 53.2096 51.9828C54.3695 53.1427 55.9427 53.7943 57.583 53.7943C59.2234 53.7943 60.7965 53.1427 61.9564 51.9828C63.1163 50.8229 63.7679 49.2498 63.7679 47.6094V39.434H60.4736V47.6094ZM84.9745 40.2764C84.9745 38.6 86.083 38.0689 87.2972 38.0689C88.2764 38.0689 89.5689 38.8141 90.4151 39.7179L92.5802 37.1651C91.4991 35.7028 89.3066 34.6924 87.5113 34.6924C83.9236 34.6924 81.3292 36.7934 81.3292 40.2764C81.3292 46.7387 89.2274 44.6877 89.2274 48.3047C89.2274 49.4198 88.1443 50.4047 86.9047 50.4047C84.9491 50.4047 84.3151 49.449 83.417 48.4377L81.0132 50.9368C82.5509 52.8236 84.4472 53.7821 86.7179 53.7821C90.1264 53.7821 92.8679 51.6556 92.8679 48.3311C92.8679 41.1575 84.9689 43.3868 84.9689 40.2764M133.837 50.7292C131.883 50.7292 131.327 49.884 131.327 48.5896V42.8585H134.365V39.9547H131.327V36.1236L127.975 37.6283V49.3019C127.975 52.2877 130.035 53.7924 132.859 53.7924C133.303 53.8 133.746 53.7641 134.182 53.6868L135 50.6755C134.631 50.7009 134.208 50.7264 133.837 50.7264M73.0604 39.5292C71.4226 39.5292 70.2792 40.0047 69.1736 41.0887V34.8066H65.8623V46.4509C65.8623 50.8094 69.0132 53.7962 72.5547 53.7962C76.483 53.7962 79.9387 50.7566 79.9387 46.6641C79.9387 42.6226 76.7585 39.5321 73.0604 39.5321M73.0396 50.4632C72.5461 50.4632 72.0574 50.366 71.6015 50.1771C71.1455 49.9883 70.7313 49.7115 70.3823 49.3625C70.0333 49.0135 69.7565 48.5993 69.5677 48.1433C69.3788 47.6874 69.2816 47.1987 69.2816 46.7052C69.2816 46.2117 69.3788 45.723 69.5677 45.267C69.7565 44.8111 70.0333 44.3968 70.3823 44.0479C70.7313 43.6989 71.1455 43.4221 71.6015 43.2332C72.0574 43.0444 72.5461 42.9472 73.0396 42.9472C74.0363 42.9472 74.9922 43.3431 75.6969 44.0479C76.4017 44.7526 76.7976 45.7085 76.7976 46.7052C76.7976 47.7019 76.4017 48.6577 75.6969 49.3625C74.9922 50.0673 74.0363 50.4632 73.0396 50.4632ZM109.023 46.4906C109.023 42.3906 105.575 39.3585 101.639 39.3585C98.0981 39.3585 94.9462 42.3443 94.9462 46.7038V58.3547H98.2575V52.0641C99.3613 53.1462 100.507 53.6236 102.142 53.6236C105.841 53.6236 109.023 50.533 109.023 46.4906ZM105.887 46.449C105.887 47.4457 105.491 48.4016 104.786 49.1064C104.081 49.8111 103.125 50.2071 102.129 50.2071C101.132 50.2071 100.176 49.8111 99.4715 49.1064C98.7667 48.4016 98.3708 47.4457 98.3708 46.449C98.3708 45.4524 98.7667 44.4965 99.4715 43.7917C100.176 43.087 101.132 42.691 102.129 42.691C103.125 42.691 104.081 43.087 104.786 43.7917C105.491 44.4965 105.887 45.4524 105.887 46.449Z" fill="#2C2E33"/>
<path d="M119.722 39.1981V35.8707C120.162 35.6652 120.534 35.3391 120.796 34.9302C121.058 34.5214 121.198 34.0467 121.2 33.5613V33.4849C121.2 32.0698 120.053 30.9226 118.638 30.9226H118.561C117.882 30.9226 117.23 31.1926 116.749 31.6731C116.269 32.1536 115.999 32.8053 115.999 33.4849V33.5613C116.001 34.0467 116.141 34.5214 116.403 34.9302C116.664 35.3391 117.037 35.6652 117.476 35.8707V39.1981C116.212 39.3916 115.022 39.9156 114.026 40.717L104.901 33.6094C104.966 33.3745 105 33.133 105.004 32.8906C105.005 32.3195 104.836 31.761 104.52 31.2856C104.204 30.8102 103.753 30.4393 103.226 30.2198C102.699 30.0004 102.119 29.9422 101.558 30.0526C100.998 30.1631 100.483 30.4372 100.079 30.8403C99.6744 31.2434 99.3986 31.7574 99.2863 32.3173C99.1741 32.8772 99.2304 33.4578 99.4481 33.9857C99.6659 34.5136 100.035 34.965 100.51 35.2829C100.984 35.6009 101.542 35.7709 102.113 35.7717C102.613 35.7693 103.103 35.636 103.535 35.3849L112.521 42.3773C111.713 43.5968 111.292 45.0312 111.312 46.4936C111.332 47.9559 111.792 49.3783 112.632 50.5755L109.899 53.3094C109.678 53.2388 109.448 53.2013 109.216 53.1981C108.747 53.1985 108.289 53.3378 107.899 53.5984C107.51 53.8591 107.206 54.2294 107.027 54.6625C106.848 55.0956 106.801 55.5721 106.893 56.0318C106.984 56.4915 107.21 56.9138 107.541 57.2452C107.873 57.5767 108.295 57.8024 108.755 57.894C109.214 57.9855 109.691 57.9387 110.124 57.7595C110.557 57.5803 110.927 57.2767 111.188 56.8872C111.449 56.4976 111.588 56.0395 111.588 55.5707C111.585 55.3388 111.548 55.1086 111.477 54.8877L114.181 52.183C115.063 52.8618 116.088 53.3297 117.178 53.551C118.269 53.7723 119.396 53.7411 120.472 53.4597C121.549 53.1783 122.546 52.6542 123.389 51.9276C124.232 51.201 124.897 50.2912 125.334 49.2678C125.771 48.2444 125.967 47.1346 125.909 46.0234C125.85 44.9122 125.538 43.8292 124.997 42.8572C124.455 41.8852 123.698 41.0501 122.784 40.4159C121.87 39.7817 120.823 39.3651 119.722 39.1981ZM118.602 50.1415C118.102 50.1552 117.605 50.0687 117.139 49.887C116.673 49.7052 116.249 49.432 115.89 49.0835C115.532 48.7349 115.247 48.318 115.053 47.8575C114.858 47.397 114.758 46.9022 114.758 46.4023C114.758 45.9025 114.858 45.4077 115.053 44.9472C115.247 44.4867 115.532 44.0698 115.89 43.7212C116.249 43.3727 116.673 43.0995 117.139 42.9177C117.605 42.736 118.102 42.6495 118.602 42.6632C119.57 42.6971 120.488 43.1056 121.161 43.8025C121.834 44.4995 122.211 45.4305 122.211 46.3996C122.212 47.3687 121.836 48.3001 121.164 48.9977C120.491 49.6953 119.574 50.1047 118.605 50.1396" fill="#2C2E33"/>
</g>
<defs>
<clipPath id="clip0_2070_838">
<rect width="100" height="29.2453" fill="white" transform="translate(35 30)"/>
</clipPath>
</defs>
</svg>
