<svg width="170" height="89" viewBox="0 0 170 89" fill="none" xmlns="http://www.w3.org/2000/svg">
<rect y="0.43335" width="170" height="88.4667" rx="40" fill="#FBEBD7"/>
<g clip-path="url(#clip0_2070_751)">
<path d="M87.9724 36.0931C87.9724 37.3352 86.9759 38.3357 85.7388 38.3357C84.5016 38.3357 83.5051 37.3352 83.5051 36.0931C83.5051 34.8511 84.4673 33.8506 85.7388 33.8506C87.0102 33.8851 87.9724 34.8856 87.9724 36.0931ZM78.7628 40.6128C78.7628 40.8198 78.7628 41.1648 78.7628 41.1648C78.7628 41.1648 77.6975 39.7848 75.4295 39.7848C71.6838 39.7848 68.7628 42.6484 68.7628 46.616C68.7628 50.5491 71.6494 53.4472 75.4295 53.4472C77.7319 53.4472 78.7628 52.0327 78.7628 52.0327V52.6192C78.7628 52.8952 78.969 53.1022 79.2439 53.1022H82.0274V40.1298C82.0274 40.1298 79.4845 40.1298 79.2439 40.1298C78.969 40.1298 78.7628 40.3713 78.7628 40.6128ZM78.7628 48.9276C78.2474 49.6866 77.2164 50.3421 75.9793 50.3421C73.78 50.3421 72.0961 48.9621 72.0961 46.616C72.0961 44.2699 73.78 42.8899 75.9793 42.8899C77.1821 42.8899 78.2817 43.5799 78.7628 44.3044V48.9276ZM84.0893 40.1298H87.3882V53.1022H84.0893V40.1298ZM133.368 39.7848C131.1 39.7848 130.034 41.1648 130.034 41.1648V33.8851H126.735V53.1022C126.735 53.1022 129.278 53.1022 129.519 53.1022C129.794 53.1022 130 52.8607 130 52.6192V52.0327C130 52.0327 131.065 53.4472 133.333 53.4472C137.079 53.4472 140 50.5491 140 46.616C140 42.6829 137.079 39.7848 133.368 39.7848ZM132.818 50.3076C131.546 50.3076 130.55 49.6521 130.034 48.8931V44.2699C130.55 43.5799 131.649 42.8554 132.818 42.8554C135.017 42.8554 136.701 44.2354 136.701 46.5815C136.701 48.9276 135.017 50.3076 132.818 50.3076ZM125.017 45.4085V53.1367H121.718V45.788C121.718 43.6489 121.031 42.7864 119.175 42.7864C118.179 42.7864 117.148 43.3039 116.495 44.0629V53.1022H113.196V40.1298H115.807C116.082 40.1298 116.289 40.3713 116.289 40.6128V41.1648C117.251 40.1643 118.522 39.7848 119.794 39.7848C121.237 39.7848 122.44 40.1988 123.402 41.0268C124.57 41.9928 125.017 43.2349 125.017 45.4085ZM105.189 39.7848C102.921 39.7848 101.856 41.1648 101.856 41.1648V33.8851H98.5566V53.1022C98.5566 53.1022 101.1 53.1022 101.34 53.1022C101.615 53.1022 101.821 52.8607 101.821 52.6192V52.0327C101.821 52.0327 102.887 53.4472 105.155 53.4472C108.9 53.4472 111.821 50.5491 111.821 46.616C111.856 42.6829 108.935 39.7848 105.189 39.7848ZM104.639 50.3076C103.368 50.3076 102.371 49.6521 101.856 48.8931V44.2699C102.371 43.5799 103.471 42.8554 104.639 42.8554C106.838 42.8554 108.522 44.2354 108.522 46.5815C108.522 48.9276 106.838 50.3076 104.639 50.3076ZM95.7044 39.7848C96.701 39.7848 97.2164 39.9573 97.2164 39.9573V43.0279C97.2164 43.0279 94.4673 42.0963 92.7491 44.0629V53.1367H89.4501V40.1298C89.4501 40.1298 91.9931 40.1298 92.2336 40.1298C92.5085 40.1298 92.7147 40.3713 92.7147 40.6128V41.1648C93.3333 40.4403 94.6735 39.7848 95.7044 39.7848ZM61.4432 51.9292C61.2714 51.5152 61.0996 51.0667 60.9278 50.6871C60.6529 50.0661 60.3779 49.4796 60.1374 48.9276L60.103 48.8931C57.7319 43.7179 55.1889 38.4737 52.5085 33.2985L52.4054 33.0915C52.1305 32.574 51.8556 32.022 51.5807 31.47C51.237 30.849 50.8934 30.1934 50.3436 29.5724C49.2439 28.1924 47.6632 27.4333 45.9793 27.4333C44.2611 27.4333 42.7147 28.1924 41.5807 29.5034C41.0652 30.1244 40.6872 30.78 40.3436 31.401C40.0687 31.953 39.7937 32.505 39.5188 33.0225L39.4157 33.2295C36.7697 38.4047 34.1924 43.6489 31.8212 48.8241L31.7869 48.8931C31.5463 49.4451 31.2714 50.0316 30.9965 50.6526C30.8247 51.0322 30.6529 51.4462 30.481 51.8947C30.0343 53.1712 29.8968 54.3788 30.0687 55.6208C30.4467 58.2084 32.1649 60.382 34.536 61.348C35.4295 61.7275 36.3573 61.9 37.3195 61.9C37.5944 61.9 37.9381 61.8655 38.213 61.831C39.347 61.693 40.5154 61.3135 41.6494 60.658C43.0584 59.8644 44.3986 58.7259 45.9106 57.0699C47.4226 58.7259 48.7972 59.8644 50.1718 60.658C51.3058 61.3135 52.4742 61.693 53.6082 61.831C53.8831 61.8655 54.2267 61.9 54.5017 61.9C55.4639 61.9 56.426 61.7275 57.2852 61.348C59.6907 60.382 61.3745 58.1739 61.7525 55.6208C62.0274 54.4133 61.89 53.2057 61.4432 51.9292ZM45.945 53.7232C44.0893 51.3772 42.8865 49.1691 42.4742 47.306C42.3023 46.5125 42.268 45.8225 42.3711 45.2015C42.4398 44.6494 42.646 44.1664 42.9209 43.7524C43.5738 42.8209 44.6735 42.2344 45.945 42.2344C47.2164 42.2344 48.3504 42.7864 48.969 43.7524C49.2439 44.1664 49.4501 44.6494 49.5188 45.2015C49.6219 45.8225 49.5876 46.547 49.4157 47.306C49.0034 49.1346 47.8006 51.3427 45.945 53.7232ZM59.6563 55.3448C59.4157 57.1389 58.213 58.6914 56.5291 59.3814C55.7044 59.7264 54.8109 59.8299 53.9175 59.7264C53.0584 59.6229 52.1992 59.3469 51.3058 58.8294C50.0687 58.1394 48.8315 57.0699 47.3882 55.4828C49.6563 52.6882 51.0309 50.1351 51.5463 47.858C51.7869 46.7885 51.8212 45.8225 51.7181 44.9254C51.5807 44.0629 51.2714 43.2694 50.7903 42.5794C49.725 41.0268 47.9381 40.1298 45.945 40.1298C43.9518 40.1298 42.1649 41.0613 41.0996 42.5794C40.6185 43.2694 40.3092 44.0629 40.1718 44.9254C40.0343 45.8225 40.0687 46.823 40.3436 47.858C40.859 50.1351 42.268 52.7227 44.5017 55.5173C43.0927 57.1044 41.8212 58.1739 40.5841 58.8639C39.6907 59.3814 38.8315 59.6574 37.9724 59.7609C37.0446 59.8644 36.1511 59.7264 35.3608 59.4159C33.6769 58.7259 32.4742 57.1734 32.2336 55.3793C32.1305 54.5168 32.1992 53.6542 32.5429 52.6882C32.646 52.3432 32.8178 51.9982 32.9896 51.5842C33.2302 51.0321 33.5051 50.4456 33.78 49.8591L33.8144 49.7901C36.1855 44.6494 38.7285 39.4053 41.3745 34.2991L41.4776 34.0921C41.7525 33.5746 42.0274 33.0225 42.3023 32.505C42.5773 31.953 42.8865 31.4355 43.2645 30.987C43.9862 30.1589 44.9484 29.7104 46.0137 29.7104C47.079 29.7104 48.0412 30.1589 48.7628 30.987C49.1408 31.4355 49.4501 31.953 49.725 32.505C49.9999 33.0225 50.2748 33.5746 50.5498 34.0921L50.6529 34.2991C53.2645 39.4398 55.8075 44.6839 58.1786 49.8246V49.8591C58.4535 50.4111 58.6941 51.0321 58.969 51.5842C59.1408 51.9982 59.3126 52.3432 59.4157 52.6882C59.6907 53.5852 59.7937 54.4478 59.6563 55.3448Z" fill="#2C2E33"/>
</g>
<defs>
<clipPath id="clip0_2070_751">
<rect width="110" height="34.4667" fill="white" transform="translate(30 27.4333)"/>
</clipPath>
</defs>
</svg>
