<svg width="170" height="89" viewBox="0 0 170 89" fill="none" xmlns="http://www.w3.org/2000/svg">
<rect width="170" height="88.2333" rx="40" fill="#FBEBD7"/>
<g clip-path="url(#clip0_2070_687)">
<path d="M50.5618 47.2089C49.6883 46.6711 48.6803 46.5366 47.6724 46.5366C46.866 46.5366 45.5893 45.9989 45.5893 44.4528C45.5893 43.915 45.7909 43.3772 46.1941 42.9739C46.5972 42.5705 47.1348 42.3689 47.6724 42.3689C48.6803 42.3016 49.6883 42.1672 50.5618 41.6966C51.3682 41.2261 52.0401 40.5539 52.5105 39.7472C52.9809 38.9405 53.1825 38.0666 53.1825 37.1255C53.1825 36.1844 52.9137 35.3105 52.5105 34.5039C52.0401 33.6972 51.3682 33.025 50.5618 32.5544C49.7555 32.0839 48.8819 31.8822 47.9412 31.8822C47.0004 31.8822 46.1269 32.1511 45.3205 32.5544C44.5142 33.025 43.8422 33.6972 43.3718 34.5039C42.9015 35.3105 42.6999 36.1844 42.6327 37.1255C42.6327 38.1339 42.9687 39.075 43.439 39.9489C43.8422 40.6883 44.0438 42.0328 42.6999 42.8394C42.2295 43.1083 41.6247 43.1755 41.0872 43.0411C40.5496 42.9066 40.0792 42.5705 39.8104 42.1C39.2729 41.2933 38.6681 40.4866 37.7946 39.9489C36.9882 39.4783 36.1147 39.2766 35.1739 39.2766C34.2332 39.2766 33.3596 39.5455 32.5533 39.9489C31.7469 40.4194 31.075 41.0916 30.6046 41.8983C30.1342 42.705 29.9326 43.5789 29.9326 44.52C29.9326 45.4611 30.2014 46.335 30.6046 47.1416C31.075 47.9483 31.7469 48.6205 32.5533 49.0911C33.3596 49.5616 34.2332 49.7633 35.1739 49.7633C36.1147 49.7633 36.9882 49.4944 37.7946 49.0911C38.6681 48.5533 39.3401 47.8139 39.8104 46.94C40.2136 46.2678 41.2888 45.3939 42.6327 46.1333C43.1031 46.4022 43.439 46.8728 43.5734 47.4105C43.7078 47.9483 43.6406 48.4861 43.3718 49.0239C42.9015 49.8978 42.5655 50.8389 42.5655 51.8472C42.5655 52.7883 42.8343 53.6622 43.2374 54.4689C43.7078 55.2755 44.3798 55.9478 45.1861 56.4183C45.9925 56.8889 46.866 57.0905 47.8068 57.0905C48.7475 57.0905 49.6211 56.8216 50.4274 56.4183C51.2338 55.9478 51.9057 55.2755 52.3761 54.4689C52.8465 53.6622 53.0481 52.7883 53.0481 51.8472C53.0481 50.9061 52.7793 50.0322 52.3761 49.2255C52.0401 48.3516 51.3682 47.6794 50.5618 47.2089Z" fill="#2C2E33"/>
<path d="M60.4398 36.4533H64.0683V38.2011C64.5387 37.5961 65.1435 37.1256 65.8826 36.7894C66.5546 36.4533 67.361 36.3189 68.1001 36.3189C68.6377 36.3189 69.1752 36.3861 69.6456 36.5206V40.6883C69.6456 40.6883 69.1081 40.4867 67.8985 40.4867C65.8154 40.4867 64.4043 41.8983 64.4043 43.9822V52.5194H60.3726V36.4533H60.4398ZM80.1282 36.4533H83.7568V37.9994C85.0335 36.9239 86.6462 36.2517 88.2589 36.2517C92.2907 36.2517 95.7849 39.7472 95.7849 44.4528C95.7849 49.1583 92.2907 52.6539 88.2589 52.6539C86.7134 52.6539 85.2351 52.1161 84.0928 51.1078V58.2333H80.061V36.4533H80.1282ZM91.7531 44.4528C91.7531 41.8311 90.006 40.0833 87.7886 40.0833C85.5039 40.0833 83.7568 41.8311 83.7568 44.4528C83.7568 47.0744 85.5039 48.8222 87.7886 48.8222C90.0732 48.8222 91.7531 47.0744 91.7531 44.4528ZM98.7415 36.4533H102.37V37.9994C103.647 36.9239 105.26 36.2517 106.872 36.2517C110.904 36.2517 114.398 39.7472 114.398 44.4528C114.398 49.1583 110.904 52.6539 106.872 52.6539C105.327 52.6539 103.848 52.1161 102.706 51.1078V58.2333H98.6743V36.4533H98.7415ZM110.366 44.4528C110.366 41.8311 108.619 40.0833 106.402 40.0833C104.117 40.0833 102.37 41.8311 102.37 44.4528C102.37 47.0744 104.117 48.8222 106.402 48.8222C108.687 48.8222 110.366 47.0744 110.366 44.4528ZM117.355 30.5378H121.387V52.4522H117.355V30.5378ZM124.343 44.4528C124.343 39.9489 127.972 36.2517 132.34 36.2517C136.506 36.2517 140 39.5456 140 44.4528C140 44.9906 139.933 45.5283 139.798 45.9989H128.644C128.98 47.545 130.257 48.755 132.272 48.755C134.154 48.755 134.893 47.8811 134.893 47.8811H139.261C138.454 49.965 135.968 52.5867 132.272 52.5867C127.972 52.6539 124.343 49.0239 124.343 44.4528ZM136.17 43.2428C135.968 42.3689 135.498 41.5622 134.826 41.0244C134.154 40.4867 133.28 40.1506 132.34 40.1506C131.466 40.1506 130.592 40.4867 129.853 41.0244C129.181 41.5622 128.644 42.3689 128.509 43.2428H136.17ZM71.9975 32.2856C71.9975 31.6806 72.2663 31.0756 72.6694 30.6722C73.0726 30.2689 73.6774 30 74.2822 30C74.8869 30 75.4917 30.2689 75.8949 30.6722C76.298 31.0756 76.5668 31.6806 76.5668 32.2856C76.5668 32.8906 76.298 33.4956 75.8949 33.8989C75.4917 34.3022 74.8869 34.5711 74.2822 34.5711C73.6774 34.5711 73.0726 34.3022 72.6694 33.8989C72.2663 33.4283 71.9975 32.8906 71.9975 32.2856ZM72.2663 36.4533H76.298V52.4522H72.2663V36.4533Z" fill="#2C2E33"/>
</g>
<defs>
<clipPath id="clip0_2070_687">
<rect width="110" height="28.2333" fill="white" transform="translate(30 30)"/>
</clipPath>
</defs>
</svg>
