<svg width="170" height="89" viewBox="0 0 170 89" fill="none" xmlns="http://www.w3.org/2000/svg">
<rect width="170" height="88.4" rx="40" fill="#FBEBD7"/>
<g clip-path="url(#clip0_2070_818)">
<path d="M33.718 47.4325H30.434V43.2228H32.568C32.972 43.2228 33.316 43.2128 33.72 43.1907C33.988 43.1805 34.2501 43.1088 34.4862 42.9811C34.7223 42.8535 34.9261 42.6733 35.082 42.4543C35.2547 42.2258 35.365 41.9561 35.402 41.6718C35.438 41.4229 35.442 41.2103 35.418 40.9574C35.376 40.5074 35.1675 40.0894 34.8336 39.786C34.4996 39.4826 34.0645 39.3156 33.614 39.3181H30.434V52.9666H25V35H33.88C34.234 35 34.532 35.006 34.886 35.0261C37.244 35.1525 39.186 36.4668 40.184 38.6118C40.6939 39.6725 40.889 40.858 40.746 42.0269C40.6254 43.2649 40.1134 44.4318 39.2847 45.3571C38.456 46.2823 37.3541 46.9175 36.14 47.1697C35.3459 47.3492 34.534 47.4374 33.72 47.4325" fill="#2C2E33"/>
<path d="M53.896 51.9613C53.824 50.9039 53.784 50.009 53.762 48.9475C53.734 47.5529 53.718 46.3791 53.708 44.9846C53.708 44.2706 53.6152 43.5596 53.432 42.8697C53.3221 42.4127 53.1175 41.9841 52.8314 41.6117C52.5454 41.2394 52.1844 40.9317 51.772 40.7086C51.2819 40.4304 50.7515 40.2307 50.2 40.1167C48.4472 39.7215 46.633 39.6854 44.866 40.0104C44.346 40.1006 43.912 40.2271 43.422 40.4317C42.8781 40.6473 42.3903 40.9845 41.9959 41.4178C41.6015 41.8511 41.3108 42.3689 41.146 42.9319C41.0094 43.3591 40.9677 43.8111 41.024 44.2562C41.032 44.3405 41.054 44.4127 41.092 44.491L45.398 44.5973C45.3848 44.3366 45.4242 44.0758 45.514 43.8308C45.5784 43.6416 45.685 43.4697 45.8258 43.3282C45.9665 43.1866 46.1376 43.0792 46.326 43.0141C46.8774 42.802 47.4856 42.7913 48.044 42.984C48.229 43.0415 48.397 43.1439 48.5331 43.2822C48.6692 43.4205 48.7691 43.5903 48.824 43.7766C48.896 44.0174 48.86 44.2582 48.714 44.4649C48.594 44.6415 48.422 44.7762 48.222 44.8501C48.094 44.9003 47.982 44.9344 47.852 44.9705C47.2856 45.1255 46.7114 45.2507 46.132 45.3457C45.648 45.426 45.24 45.5003 44.76 45.5986C44.1422 45.7201 43.5324 45.8796 42.934 46.0761C42.3817 46.2492 41.8757 46.5456 41.454 46.943C40.8888 47.4466 40.525 48.1389 40.43 48.8913C40.356 49.415 40.374 49.8705 40.49 50.3862C40.6242 51.0286 40.9323 51.6214 41.3804 52.0996C41.8285 52.5778 42.3992 52.9229 43.03 53.097C44.4222 53.5246 45.9199 53.4486 47.262 52.8823C47.9177 52.6264 48.4955 52.2031 48.938 51.6543L48.634 49.4471C48.4313 49.7719 48.1338 50.0262 47.782 50.1755C47.442 50.326 47.132 50.4062 46.762 50.4444C46.452 50.4745 46.184 50.4524 45.884 50.3681C45.6511 50.3076 45.4406 50.1808 45.278 50.0029C45.1353 49.8535 45.0381 49.6662 44.998 49.4632C44.9639 49.3084 44.9731 49.1473 45.0246 48.9975C45.0762 48.8477 45.168 48.7151 45.29 48.6144C45.4486 48.4757 45.6318 48.3682 45.83 48.2974C46.3036 48.1216 46.7839 47.965 47.27 47.8278C47.888 47.6533 48.398 47.4647 48.984 47.1938C49.04 47.6633 49.038 48.0646 48.972 48.5321C48.926 48.8753 48.82 49.1582 48.634 49.4471L48.938 51.6543C49.032 51.9673 49.118 52.2282 49.226 52.5372C49.286 52.7078 49.366 52.8402 49.486 52.9746H54.226C54.0297 52.6723 53.9159 52.3236 53.896 51.9633" fill="#2C2E33"/>
<path d="M59.5662 41.4892C60.16 40.9605 60.8294 40.5242 61.5522 40.195C62.7319 39.6267 64.082 39.5264 65.3322 39.914C66.005 40.1 66.6197 40.4541 67.1188 40.9433C67.618 41.4325 67.9852 42.0408 68.1862 42.7112C68.3931 43.3478 68.4958 44.014 68.4902 44.6836V52.9666H63.4102V45.5183C63.4102 45.2695 63.3782 45.0568 63.3062 44.82C63.2468 44.6144 63.1416 44.425 62.9985 44.2661C62.8554 44.1072 62.6782 43.9831 62.4802 43.903C62.0494 43.7169 61.5655 43.6958 61.1202 43.8438C60.6749 43.9917 60.2992 44.2984 60.0642 44.7057C59.8628 45.0401 59.7588 45.4245 59.7642 45.8153V52.9666H54.8442V40.1328H59.4582L59.5662 41.4892Z" fill="#2C2E33"/>
<path d="M82.6162 51.9613C82.5442 50.9039 82.5042 50.009 82.4822 48.9475C82.4542 47.5529 82.4382 46.3791 82.4282 44.9846C82.4282 44.2706 82.3354 43.5596 82.1522 42.8697C82.0423 42.4127 81.8377 41.9841 81.5517 41.6117C81.2656 41.2394 80.9047 40.9317 80.4922 40.7086C80.0021 40.4304 79.4717 40.2307 78.9202 40.1167C77.1675 39.7215 75.3532 39.6854 73.5862 40.0104C73.0662 40.1006 72.6322 40.2271 72.1422 40.4317C71.5983 40.6473 71.1105 40.9845 70.7161 41.4178C70.3217 41.8511 70.031 42.3689 69.8662 42.9319C69.7296 43.3591 69.6879 43.8111 69.7442 44.2562C69.7522 44.3405 69.7742 44.4127 69.8122 44.491L74.1182 44.5973C74.105 44.3366 74.1444 44.0758 74.2342 43.8308C74.2986 43.6416 74.4053 43.4697 74.546 43.3282C74.6867 43.1866 74.8578 43.0792 75.0462 43.0141C75.5976 42.802 76.2058 42.7913 76.7642 42.984C76.9492 43.0415 77.1172 43.1439 77.2533 43.2822C77.3894 43.4205 77.4893 43.5903 77.5442 43.7766C77.6162 44.0174 77.5802 44.2582 77.4342 44.4649C77.3142 44.6415 77.1422 44.7762 76.9422 44.8501C76.8142 44.9003 76.7022 44.9344 76.5722 44.9705C76.0058 45.1255 75.4317 45.2507 74.8522 45.3457C74.3682 45.426 73.9602 45.5003 73.4802 45.5986C72.8624 45.7201 72.2526 45.8796 71.6542 46.0761C71.102 46.2492 70.596 46.5456 70.1742 46.943C69.609 47.4466 69.2452 48.1389 69.1502 48.8913C69.0762 49.415 69.0942 49.8705 69.2102 50.3862C69.3445 51.0286 69.6525 51.6214 70.1006 52.0996C70.5487 52.5778 71.1194 52.9229 71.7502 53.097C73.1424 53.5246 74.6401 53.4486 75.9822 52.8823C76.6379 52.6264 77.2157 52.2031 77.6582 51.6543L77.3542 49.4471C77.1515 49.7719 76.854 50.0262 76.5022 50.1755C76.1622 50.326 75.8522 50.4062 75.4822 50.4444C75.1722 50.4745 74.9042 50.4524 74.6042 50.3681C74.3713 50.3076 74.1608 50.1808 73.9982 50.0029C73.8555 49.8535 73.7584 49.6662 73.7182 49.4632C73.6841 49.3084 73.6933 49.1473 73.7448 48.9975C73.7964 48.8477 73.8882 48.7151 74.0102 48.6144C74.1688 48.4757 74.352 48.3682 74.5502 48.2974C75.0238 48.1216 75.5042 47.965 75.9902 47.8278C76.6082 47.6533 77.1182 47.4647 77.7042 47.1938C77.7602 47.6633 77.7582 48.0646 77.6922 48.5321C77.6462 48.8753 77.5402 49.1582 77.3542 49.4471L77.6582 51.6543C77.7522 51.9673 77.8382 52.2282 77.9462 52.5372C78.0062 52.7078 78.0862 52.8402 78.2062 52.9746H82.9462C82.75 52.6723 82.6362 52.3236 82.6162 51.9633" fill="#2C2E33"/>
<path d="M89.7161 48.2492C90.0821 48.3114 90.3881 48.3897 90.7401 48.5061C90.8812 48.5504 91.0078 48.6321 91.1064 48.7427C91.205 48.8533 91.2719 48.9885 91.3001 49.1341C91.3364 49.2911 91.3318 49.4549 91.2866 49.6095C91.2414 49.7642 91.1572 49.9045 91.0421 50.017C90.8151 50.2532 90.5159 50.4065 90.1921 50.4524C89.7401 50.5247 89.3401 50.4885 88.9121 50.332C88.7127 50.2627 88.5277 50.1573 88.3661 50.021C88.1538 49.8459 87.9985 49.6111 87.9201 49.3468C87.8505 49.1257 87.818 48.8944 87.8241 48.6626H83.1401V48.9355C83.1401 49.3769 83.2081 49.7521 83.3621 50.1675C83.5981 50.7895 83.9201 51.2711 84.4061 51.7246C85.0052 52.2974 85.7374 52.7112 86.5361 52.9285C88.1809 53.4186 89.915 53.5284 91.6081 53.2495C92.4029 53.1346 93.1721 52.8835 93.8821 52.5071C94.1972 52.3445 94.4925 52.1458 94.7621 51.9152C95.3763 51.413 95.8232 50.7348 96.0434 49.9712C96.2635 49.2076 96.2463 48.3948 95.9941 47.6412C95.8189 47.0712 95.4843 46.5635 95.0301 46.1785C94.4198 45.6368 93.6949 45.2409 92.9101 45.0207L92.3981 44.8742C91.4472 44.6054 90.4798 44.399 89.5021 44.2562C89.2261 44.2161 88.9941 44.1719 88.7221 44.1077C88.603 44.0795 88.4871 44.0392 88.3761 43.9873C88.3076 43.9565 88.2457 43.9124 88.1942 43.8576C88.1426 43.8028 88.1023 43.7384 88.0755 43.6679C88.0488 43.5975 88.0361 43.5225 88.0383 43.4471C88.0405 43.3718 88.0574 43.2976 88.0881 43.2289L88.1101 43.1847C88.1819 43.052 88.2797 42.9353 88.3976 42.8415C88.5154 42.7477 88.651 42.6788 88.7961 42.6389C89.3321 42.4844 89.8241 42.4985 90.3501 42.6751C90.5924 42.7553 90.8017 42.9134 90.9455 43.1248C91.0894 43.3362 91.1599 43.5892 91.1461 43.8449H95.6621C95.6621 43.3162 95.5687 42.7917 95.3861 42.2958C95.2101 41.7862 94.8888 41.3397 94.4621 41.0116C94.0992 40.7188 93.6921 40.4858 93.2561 40.3214C92.8339 40.1546 92.3956 40.0322 91.9481 39.9562C90.888 39.7659 89.8088 39.7053 88.7341 39.7756C88.0861 39.8117 87.5401 39.892 86.9061 40.0405C86.0541 40.2411 85.3661 40.5722 84.6781 41.114C84.1125 41.547 83.6896 42.1405 83.4641 42.8175C83.1909 43.6352 83.2207 44.5243 83.5481 45.3217C83.7188 45.772 83.9825 46.181 84.3221 46.5216C84.6616 46.8623 85.0693 47.1269 85.5181 47.2981C85.9921 47.4867 86.4061 47.6112 86.9061 47.7135C87.8921 47.9182 88.7261 48.0767 89.7181 48.2472M105.06 39.888C104.554 39.8077 104.122 39.7736 103.61 39.7736C103.098 39.7736 102.668 39.8077 102.16 39.888C100.751 40.0897 99.4431 40.7404 98.4301 41.744C97.3112 42.7895 96.6258 44.2194 96.5101 45.7491C96.4179 46.677 96.5028 47.614 96.7601 48.5101C97.1601 49.9588 97.9161 51.0785 99.1061 51.9914C99.8459 52.5745 100.711 52.9771 101.632 53.1673C102.282 53.3134 102.946 53.3848 103.612 53.38C104.312 53.38 104.904 53.3198 105.59 53.1673C106.512 52.977 107.376 52.5745 108.116 51.9914L105.368 48.9856C105.264 49.2172 105.116 49.426 104.932 49.6C104.748 49.7741 104.531 49.91 104.294 50C104.058 50.09 103.806 50.1323 103.553 50.1246C103.3 50.1168 103.051 50.0591 102.82 49.9548C102.387 49.7667 102.042 49.4202 101.854 48.9856C101.675 48.5927 101.553 48.1756 101.492 47.7476C101.356 46.8447 101.372 46.0621 101.546 45.1672C101.636 44.7037 101.792 44.3244 102.05 43.9271C102.22 43.668 102.452 43.4553 102.724 43.3081C102.996 43.161 103.301 43.0839 103.61 43.0839C103.919 43.0839 104.224 43.161 104.496 43.3081C104.768 43.4553 105 43.668 105.17 43.9271C105.421 44.3015 105.592 44.7236 105.674 45.1672C105.848 46.0641 105.866 46.8467 105.73 47.7476C105.662 48.1991 105.554 48.5703 105.368 48.9856L108.116 51.9914C109.269 51.1322 110.096 49.9042 110.46 48.5101C110.722 47.567 110.798 46.7243 110.71 45.7491C110.595 44.2193 109.909 42.7893 108.79 41.744C107.777 40.74 106.47 40.0893 105.06 39.888Z" fill="#2C2E33"/>
<path d="M116.144 41.4892C116.738 40.9605 117.407 40.5242 118.13 40.195C119.31 39.6267 120.66 39.5264 121.91 39.914C122.583 40.1 123.197 40.4541 123.696 40.9433C124.196 41.4325 124.563 42.0408 124.764 42.7112C124.971 43.3478 125.073 44.014 125.068 44.6836V52.9666H119.988V45.5183C119.988 45.2695 119.956 45.0568 119.884 44.82C119.824 44.6144 119.719 44.425 119.576 44.2661C119.433 44.1072 119.256 43.9831 119.058 43.903C118.627 43.7169 118.143 43.6958 117.698 43.8438C117.253 43.9917 116.877 44.2984 116.642 44.7057C116.44 45.0401 116.336 45.4245 116.342 45.8153V52.9666H111.422V40.1328H116.036L116.144 41.4892Z" fill="#2C2E33"/>
<path d="M126.052 35V38.3911H130.834V35H126.052ZM126.052 40.1347V52.9686H130.834V40.1347H126.052ZM143.68 51.3032C142.768 52.2922 141.563 52.96 140.244 53.2074C139.316 53.396 138.504 53.4361 137.562 53.3378C136.366 53.2305 135.226 52.7837 134.274 52.0496C133.485 51.472 132.828 50.7317 132.348 49.8785C131.964 49.2254 131.707 48.5049 131.592 47.7556C131.412 46.664 131.46 45.7049 131.746 44.6374C132.4 42.2095 134.218 40.4899 136.672 39.9782C138.072 39.6873 139.316 39.7174 140.702 40.0766C141.646 40.3093 142.512 40.786 143.216 41.4591C143.666 41.871 144.039 42.3611 144.316 42.9058C144.66 43.5447 144.817 44.268 144.77 44.9926H140.396C140.355 44.7119 140.259 44.4422 140.113 44.199C139.968 43.9558 139.776 43.744 139.548 43.576C139.258 43.3481 138.905 43.2161 138.537 43.1981C138.169 43.1801 137.804 43.2771 137.494 43.4756C137.06 43.7368 136.739 44.1512 136.594 44.6374C136.219 45.7791 136.2 47.0079 136.538 48.1609C136.667 48.6494 136.933 49.0906 137.304 49.4331C137.509 49.6358 137.759 49.7869 138.034 49.8741C138.308 49.9613 138.6 49.982 138.884 49.9347C139.242 49.8884 139.571 49.7113 139.808 49.4371C140.061 49.1618 140.228 48.8178 140.288 48.4479C140.336 48.177 140.362 47.9462 140.378 47.6713H144.988C145.042 48.3354 144.954 49.0035 144.728 49.6302C144.502 50.2569 144.145 50.8275 143.68 51.3032Z" fill="#2C2E33"/>
</g>
<defs>
<clipPath id="clip0_2070_818">
<rect width="120" height="18.4" fill="white" transform="translate(25 35)"/>
</clipPath>
</defs>
</svg>
