<svg width="170" height="91" viewBox="0 0 170 91" fill="none" xmlns="http://www.w3.org/2000/svg">
<rect y="0.43335" width="170" height="90.4" rx="40" fill="#FBEBD7"/>
<g clip-path="url(#clip0_2070_768)">
<path d="M29.5595 41.4194C29.4714 41.0664 29.4934 40.7134 29.5374 40.5149C29.6476 39.9633 30.022 39.3676 31.1013 39.3676C32.1145 39.3676 32.6872 39.9854 32.6872 40.9341C32.6872 41.2429 32.6872 41.9931 32.6872 41.9931H36.9604V40.7796C36.9824 37.029 33.6123 36.4333 31.1894 36.4333C28.1498 36.4333 25.6608 37.4482 25.1982 40.2501C25.0661 41.0223 25.0441 41.7063 25.2423 42.5667C25.9912 46.0746 32.0925 47.0895 32.9736 49.3178C33.1498 49.7369 33.0837 50.2664 33.0176 50.5974C32.8855 51.171 32.489 51.7667 31.3436 51.7667C30.2643 51.7667 29.6256 51.1489 29.6256 50.2003V48.5456H25V49.8693C25 53.7082 28.0176 54.8554 31.2335 54.8554C34.3392 54.8554 36.8722 53.7964 37.2907 50.9283C37.489 49.4501 37.3348 48.4794 37.2687 48.1264C36.5639 44.4861 30.0441 43.4271 29.5595 41.4194ZM85.3524 41.4415C85.2863 41.1106 85.3084 40.7355 85.3304 40.559C85.4626 40.0075 85.815 39.4118 86.8943 39.4118C87.8855 39.4118 88.4581 40.0295 88.4581 40.9561C88.4581 41.265 88.4581 42.0151 88.4581 42.0151H92.6872V40.8238C92.6872 37.1173 89.3833 36.5437 86.9824 36.5437C83.9648 36.5437 81.4978 37.5365 81.0352 40.3163C80.9251 41.0664 80.8811 41.7504 81.0793 42.6108C81.8062 46.0746 87.8414 47.0895 88.7225 49.2957C88.8766 49.7149 88.8326 50.2444 88.7445 50.5533C88.6123 51.1269 88.2379 51.7005 87.0925 51.7005C86.0352 51.7005 85.3745 51.0827 85.3745 50.1561V48.5015H80.815V49.8031C80.815 53.5979 83.7885 54.7451 86.9824 54.7451C90.0441 54.7451 92.5771 53.6861 92.9736 50.8621C93.1718 49.3839 93.0176 48.4353 92.9515 48.0823C92.2687 44.5082 85.837 43.4492 85.3524 41.4415ZM124.295 50.818L120.264 36.9849H113.899V53.995H118.106L117.863 39.7206L122.203 53.995H128.304V36.9849H124.075L124.295 50.818ZM43.37 36.9849L40.1762 54.1715H44.8018L47.2026 38.2645L49.5374 54.1715H54.141L50.9912 36.9849H43.37ZM69.2731 36.9849L67.1145 50.4209L64.9559 36.9849H57.9515L57.5771 54.1715H61.8722L61.9824 38.2645L64.9339 54.1715H69.2731L72.2247 38.2645L72.3348 54.1715H76.63L76.2555 36.9849H69.2731ZM109.141 36.9849H104.802V49.6928C104.802 49.9134 104.802 50.1561 104.758 50.3547C104.67 50.7739 104.317 51.6122 103.106 51.6122C101.916 51.6122 101.564 50.7959 101.476 50.3547C101.432 50.1782 101.432 49.9134 101.432 49.6928V36.9849H97.0925V49.2957C97.0925 49.6046 97.1145 50.2664 97.1366 50.4209C97.4449 53.6199 99.9559 54.6789 103.106 54.6789C106.256 54.6789 108.789 53.642 109.097 50.4209C109.119 50.2444 109.163 49.6046 109.141 49.2957V36.9849ZM138.921 44.5082V47.0233H140.683V49.5163C140.683 49.7369 140.683 49.9796 140.639 50.1782C140.573 50.6415 140.132 51.4357 138.877 51.4357C137.643 51.4357 137.203 50.6415 137.137 50.1782C137.115 49.9796 137.093 49.7369 137.093 49.5163V41.6621C137.093 41.3753 137.115 41.0885 137.181 40.8458C137.269 40.4266 137.643 39.6103 138.877 39.6103C140.198 39.6103 140.507 40.4708 140.595 40.8458C140.639 41.0885 140.639 41.5077 140.639 41.5077V42.4564H144.956V41.8828C144.956 41.8828 144.978 41.2871 144.934 40.7355C144.604 37.5365 141.938 36.5216 138.899 36.5216C135.859 36.5216 133.26 37.5585 132.885 40.7576C132.841 41.0444 132.797 41.5739 132.797 41.9048V49.1192C132.797 49.4281 132.797 49.6708 132.863 50.2444C133.15 53.3772 135.859 54.4804 138.899 54.4804C141.96 54.4804 144.648 53.3772 144.934 50.2444C144.978 49.6708 145 49.4281 145 49.1192V44.5082H138.921Z" fill="#2C2E33"/>
</g>
<defs>
<clipPath id="clip0_2070_768">
<rect width="120" height="18.4" fill="white" transform="translate(25 36.4333)"/>
</clipPath>
</defs>
</svg>
