<svg width="170" height="90" viewBox="0 0 170 90" fill="none" xmlns="http://www.w3.org/2000/svg">
<rect width="170" height="89.1016" rx="40" fill="#FBEBD7"/>
<path fill-rule="evenodd" clip-rule="evenodd" d="M56.039 39.5816C57.3327 42.0891 57.6429 45.0994 56.6596 47.9807C54.7426 53.5972 48.6354 56.5964 43.0189 54.6794C40.5929 53.8513 38.6551 52.2415 37.3911 50.2272C39.0633 49.4291 44.7552 46.6354 45.8768 45.978C46.7983 45.441 48.1703 44.6494 48.1703 44.6494L48.7522 45.8355L49.6408 51.6805L50.3195 51.2887L50.7711 43.1246C52.1423 42.2672 53.3507 41.433 54.6156 40.5599L54.6159 40.5596C55.0791 40.2399 55.5499 39.9149 56.039 39.5816ZM55.5346 38.7068C55.5344 38.7068 55.5343 38.7066 55.5341 38.7066C55.0006 38.9638 54.4835 39.2091 53.9747 39.4504C52.5861 40.1092 51.2595 40.7386 49.8315 41.4974L42.5354 37.8064L41.8568 38.1982L46.4744 41.8903L47.2095 42.9854L47.2106 42.9873C47.2106 42.9873 45.8392 43.7797 44.9133 44.3092C43.7833 44.9519 38.518 48.4842 36.9907 49.5334C35.6552 47.007 35.3242 43.9566 36.3202 41.0387C38.2372 35.4222 44.3442 32.423 49.9608 34.3399C52.3526 35.1563 54.2696 36.7323 55.5346 38.7068Z" fill="#2C2E33"/>
<path fill-rule="evenodd" clip-rule="evenodd" d="M132.167 42.1181V40.9384H134.246V51.6846H132.107V50.4642C131.344 51.3528 130.271 51.9402 128.719 51.9402C125.664 51.9402 123.701 49.5054 123.701 46.3179C123.701 43.1526 125.664 40.6956 128.719 40.6956C130.077 40.6956 131.336 41.2078 132.167 42.1181ZM132.024 44.2271C131.39 43.2901 130.32 42.7134 129.06 42.7134C127.169 42.7134 125.867 44.3147 125.867 46.3179C125.867 48.3211 127.121 49.9703 129.06 49.9703C130.356 49.9703 131.404 49.2321 132.024 48.2752V44.2271Z" fill="#2C2E33"/>
<path d="M119.396 38.172C119.396 37.3462 120.072 36.6785 120.907 36.6785C121.715 36.6785 122.401 37.3638 122.401 38.172C122.401 39.0067 121.733 39.6831 120.907 39.6831C120.072 39.6831 119.396 39.0067 119.396 38.172Z" fill="#2C2E33"/>
<path d="M119.787 40.9384H122.009V51.6846H119.787V40.9384Z" fill="#2C2E33"/>
<path fill-rule="evenodd" clip-rule="evenodd" d="M115.443 36.9539H117.618V51.6846H115.479V50.4641C114.716 51.3528 113.642 51.9402 112.091 51.9402C109.036 51.9402 107.073 49.5054 107.073 46.3179C107.073 43.1526 109.036 40.6956 112.091 40.6956C113.397 40.6956 114.612 41.17 115.443 42.017V36.9539ZM115.395 44.2271C114.762 43.2901 113.691 42.7134 112.432 42.7134C110.541 42.7134 109.238 44.3147 109.238 46.3179C109.238 48.3211 110.493 49.9703 112.432 49.9703C113.728 49.9703 114.776 49.2321 115.395 48.2752V44.2271Z" fill="#2C2E33"/>
<path fill-rule="evenodd" clip-rule="evenodd" d="M100.811 51.9579C101.781 51.9556 102.662 51.774 103.453 51.4131C104.25 51.0499 104.948 50.526 105.549 49.8415L104.221 48.4271L104.218 48.4303C103.778 48.8986 103.281 49.2576 102.729 49.5476C102.182 49.8212 101.558 49.9588 100.855 49.9588C99.1957 49.9588 97.7513 48.7085 97.5425 47.0625H105.899C105.901 47.0385 105.902 47.0146 105.904 46.9906C105.923 46.7341 105.933 46.4782 105.933 46.2199C105.933 43.1508 103.731 40.6599 100.684 40.6599C97.6152 40.6599 95.3022 43.0841 95.3022 46.3089C95.3022 49.5981 97.6119 51.9546 100.811 51.9579ZM97.5956 45.2263H103.661C103.447 43.7317 102.218 42.6169 100.638 42.6169C99.8474 42.6169 99.1241 42.9596 98.5772 43.4694C98.0524 43.9587 97.6945 44.5981 97.5956 45.2263Z" fill="#2C2E33"/>
<path fill-rule="evenodd" clip-rule="evenodd" d="M85.8692 50.6074V55.6705H83.6943V40.9398H85.8335V42.1602C86.5965 41.2715 87.6696 40.6841 89.2213 40.6841C92.2759 40.6841 94.2393 43.119 94.2393 46.3064C94.2393 49.4717 92.2759 51.9287 89.2213 51.9287C87.9146 51.9287 86.6997 51.4543 85.8692 50.6074ZM85.9171 48.3972C86.5503 49.3343 87.6209 49.9109 88.88 49.9109C90.7711 49.9109 92.0738 48.3096 92.0738 46.3064C92.0738 44.3032 90.8189 42.6541 88.88 42.6541C87.5845 42.6541 86.5363 43.3923 85.9171 44.3492V48.3972Z" fill="#2C2E33"/>
<path d="M75.9822 46.1599L72.1918 40.939H74.8749L77.4033 44.5003L79.9316 40.939H82.5789L78.7719 46.1827L82.7551 51.6848H80.0691L77.3748 47.8816L74.6805 51.6848H71.9824L75.9822 46.1599Z" fill="#2C2E33"/>
<path d="M65.0309 45.3806H70.6131V43.2721H65.0309V39.4413H71.0963V37.3327H62.6021V51.6847H71.1401V49.5762H65.0309V45.3806Z" fill="#2C2E33"/>
</svg>
