<svg width="170" height="88" viewBox="0 0 170 88" fill="none" xmlns="http://www.w3.org/2000/svg">
<rect width="170" height="87.6" rx="40" fill="#FBEBD7"/>
<g clip-path="url(#clip0_2070_707)">
<path d="M38.92 36.4347L31.96 40.8695L38.92 45.3042L31.96 49.739L25 45.2802L31.96 40.8455L25 36.4347L31.96 32L38.92 36.4347ZM31.924 51.1653L38.884 46.7305L45.844 51.1653L38.884 55.6L31.924 51.1653ZM38.92 45.2802L45.88 40.8455L38.92 36.4347L45.844 32L52.804 36.4347L45.844 40.8695L52.804 45.3042L45.844 49.739L38.92 45.2802Z" fill="#2C2E33"/>
<path d="M58.2642 36.4347H63.8922C67.4802 36.4347 70.4442 38.5083 70.4442 43.2427V44.2375C70.4442 49.0078 67.6722 51.1533 64.0002 51.1533H58.2642V36.4347ZM61.4082 39.1076V48.4685H63.8202C65.8602 48.4685 67.2282 47.138 67.2282 44.1776V43.3985C67.2282 40.438 65.7882 39.1076 63.7122 39.1076H61.4082ZM72.1122 39.2514H74.6322L75.0402 42.0201C75.5202 40.1383 76.7442 39.1315 78.9642 39.1315H79.7442V42.3078H78.4482C75.8922 42.3078 75.2682 43.1947 75.2682 45.7117V51.1892H72.1602V39.2514H72.1122ZM80.3682 45.46V45.1244C80.3682 41.1332 82.9242 38.9518 86.4042 38.9518C89.9562 38.9518 92.4402 41.1332 92.4402 45.1244V45.46C92.4402 49.3794 90.0282 51.4889 86.4042 51.4889C82.5522 51.4529 80.3682 49.3914 80.3682 45.46ZM89.2602 45.4241V45.1244C89.2602 42.9071 88.1442 41.5766 86.3682 41.5766C84.6282 41.5766 83.4762 42.7992 83.4762 45.1244V45.4241C83.4762 47.5695 84.5922 48.7921 86.3682 48.7921C88.1442 48.7561 89.2602 47.5695 89.2602 45.4241ZM94.0722 39.2514H96.6642L96.9642 41.5047C97.5882 39.9945 98.9202 38.9518 100.888 38.9518C103.924 38.9518 105.928 41.1332 105.928 45.1724V45.508C105.928 49.4273 103.708 51.5009 100.888 51.5009C99.0042 51.5009 97.7082 50.6499 97.0722 49.2835V55.3123H94.0362L94.0722 39.2514ZM102.772 45.4241V45.1604C102.772 42.7872 101.548 41.6126 99.9162 41.6126C98.1762 41.6126 97.0242 42.943 97.0242 45.1604V45.3881C97.0242 47.4976 98.1402 48.828 99.8802 48.828C101.668 48.7921 102.772 47.6534 102.772 45.4241ZM110.524 48.9838L110.26 51.1653H107.596V35.2601H110.632V41.3609C111.304 39.8027 112.636 38.9518 114.52 38.9518C117.376 38.9877 119.488 40.9534 119.488 44.9087V45.2802C119.488 49.2356 117.484 51.5009 114.448 51.5009C112.444 51.4529 111.148 50.53 110.524 48.9838ZM116.296 45.2802V44.9806C116.296 42.7992 115.108 41.5766 113.44 41.5766C111.736 41.5766 110.548 42.943 110.548 45.0166V45.2802C110.548 47.4976 111.7 48.7921 113.404 48.7921C115.228 48.7921 116.296 47.6534 116.296 45.2802ZM120.82 45.46V45.1244C120.82 41.1332 123.376 38.9518 126.856 38.9518C130.408 38.9518 132.892 41.1332 132.892 45.1244V45.46C132.892 49.3794 130.444 51.4889 126.856 51.4889C123.004 51.4529 120.82 49.3914 120.82 45.46ZM129.736 45.4241V45.1244C129.736 42.9071 128.62 41.5766 126.844 41.5766C125.104 41.5766 123.952 42.7992 123.952 45.1244V45.4241C123.952 47.5695 125.068 48.7921 126.844 48.7921C128.632 48.7561 129.736 47.5695 129.736 45.4241ZM136.96 44.9806L132.772 39.2514H136.36L138.772 42.8351L141.22 39.2514H144.772L140.524 44.9446L145 51.1653H141.484L138.748 47.21L136.084 51.1653H132.412L136.96 44.9806Z" fill="#2C2E33"/>
</g>
<defs>
<clipPath id="clip0_2070_707">
<rect width="120" height="23.6" fill="white" transform="translate(25 32)"/>
</clipPath>
</defs>
</svg>
