<svg width="170" height="89" viewBox="0 0 170 89" fill="none" xmlns="http://www.w3.org/2000/svg">
<rect y="0.220337" width="170" height="88.3928" rx="40" fill="#FBEBD7"/>
<path d="M75.1381 45.2856H69.0779V39.9133H66.3926V53.2258H69.0779V47.8241H75.1381V53.2258H77.8234V39.9133H75.1381V45.2856Z" fill="#2C2E33"/>
<path d="M90.2675 47.5289C90.2675 49.6985 89.1963 50.8496 87.2593 50.8496C85.3077 50.8496 84.2366 49.6689 84.2366 47.4403V39.9281H81.5513V47.5437C81.5513 51.2924 83.6203 53.4324 87.23 53.4324C90.8691 53.4324 92.9527 51.2481 92.9527 47.4256V39.9133H90.2675V47.5289Z" fill="#2C2E33"/>
<path d="M121.287 49.0638L118.294 39.9133H116.093L113.099 49.0638L110.165 39.9281H107.318L111.925 53.2258H114.141L117.149 44.4886L120.157 53.2258H122.402L127.01 39.9281H124.222L121.287 49.0638Z" fill="#2C2E33"/>
<path d="M131.823 47.4993H136.695V45.0789H131.823V42.3485H138.91V39.928H129.167V53.211H139.16V50.7906H131.823V47.4993Z" fill="#2C2E33"/>
<path d="M145 39.9133H142.359V53.1963H145V39.9133Z" fill="#2C2E33"/>
<path d="M100.142 39.9133L94.3169 53.2111H97.0462L98.2495 50.4364H104.31L105.498 53.2111H108.316L102.505 39.9133H100.142ZM99.2473 48.0455L101.272 43.2783L103.312 48.0455H99.2473Z" fill="#2C2E33"/>
<path d="M57.3246 41.6844C57.5153 38.6736 54.5072 35.8841 54.5072 35.8841C54.5072 35.8841 48.9165 42.7027 44.8372 51.6613C44.8226 51.7056 44.8079 51.7942 44.8519 51.8237C44.8813 51.8532 44.94 51.868 45.0133 51.8385C46.5394 51.071 52.8931 47.7798 55.5784 45.2117C55.5637 45.197 57.2365 43.8539 57.3246 41.6844ZM50.1931 34.8805C50.1931 34.8805 49.4888 32.2535 46.6568 31.5598C46.6568 31.5598 45.8351 31.3532 44.9693 31.2351C44.9693 31.2351 41.7998 35.3381 43.3405 50.8496C43.3552 50.9382 43.3992 50.9529 43.4286 50.9677C43.4873 50.9824 43.5459 50.9677 43.5753 50.9086C44.5878 49.4328 49.2247 42.5109 50.1785 38.3046C50.1785 38.2898 50.692 36.2531 50.1931 34.8805ZM45.8497 54.008C45.8351 54.0375 45.8204 54.1261 45.8791 54.1704C46.9062 54.9083 50.0171 57.0926 51.5138 57.5206C51.5138 57.5206 54.2871 58.4652 56.6789 54.3179C56.6789 54.3179 48.6377 54.0375 45.9524 53.949C45.9231 53.949 45.8644 53.9637 45.8497 54.008ZM59.5256 44.7985C59.5256 44.7985 50.4279 49.7132 45.7177 52.9011C45.6883 52.9306 45.6443 52.9749 45.659 53.0487C45.6736 53.093 45.7177 53.1372 45.7764 53.1372C47.4638 53.1372 53.8322 53.152 53.9936 53.1225C53.9936 53.1225 54.8154 53.093 55.8425 52.6945C55.8425 52.6945 58.1169 51.9713 59.2908 49.3737C59.2908 49.3885 60.3474 47.2632 59.5256 44.7985ZM39.1145 52.9011C34.4042 49.7132 25.3065 44.7985 25.3065 44.7985C24.4995 47.2632 25.5413 49.3885 25.5413 49.3885C26.7152 51.986 28.9896 52.7092 28.9896 52.7092C30.0021 53.1077 30.8385 53.1372 30.8385 53.1372C30.9999 53.1667 37.383 53.1668 39.0558 53.152C39.1145 53.152 39.1585 53.1077 39.1732 53.0634C39.1879 52.9749 39.1438 52.9306 39.1145 52.9011ZM38.8797 53.949C36.2091 54.0375 28.1532 54.3179 28.1532 54.3179C30.5597 58.4652 33.3184 57.5206 33.3184 57.5206C34.8151 57.0926 37.9259 54.9083 38.9531 54.1704C39.0118 54.1261 38.9971 54.0375 38.9824 54.008C38.9678 53.9637 38.9091 53.949 38.8797 53.949ZM38.1754 31.545C35.3433 32.2535 34.639 34.8805 34.639 34.8805C34.1401 36.2531 34.6537 38.2898 34.6537 38.2898C35.5928 42.4961 40.2297 49.418 41.2569 50.8939C41.3009 50.9529 41.3449 50.9677 41.4036 50.9529C41.4476 50.9382 41.477 50.9086 41.4916 50.8349C43.0324 35.3233 39.8628 31.2203 39.8628 31.2203C38.9971 31.3384 38.1754 31.545 38.1754 31.545ZM30.3249 35.8694C30.3249 35.8694 27.3022 38.6588 27.4929 41.6696C27.581 43.8392 29.2538 45.197 29.2538 45.197C31.9244 47.765 38.2781 51.0562 39.8188 51.8237C39.8775 51.8532 39.9362 51.8385 39.9802 51.8089C40.0243 51.7647 40.0243 51.6909 39.9949 51.6466C35.9303 42.688 30.3249 35.8694 30.3249 35.8694Z" fill="#2C2E33"/>
</svg>
