<svg width="170" height="89" viewBox="0 0 170 89" fill="none" xmlns="http://www.w3.org/2000/svg">
<rect width="170" height="88.4333" rx="40" fill="#FBEBD7"/>
<path d="M107.374 40.4942V41.3137C107.374 41.3137 106.693 40.288 105.142 40.288C103.591 40.288 101.987 41.4147 101.987 44.0889C101.987 46.7631 104.454 47.4692 104.839 47.4692C105.225 47.4692 106.434 47.5866 107.34 46.6784V47.3845H109.068V40.4942H107.374ZM105.585 45.9313C104.546 45.9313 103.705 45.0299 103.705 43.9195C103.705 42.8092 104.541 41.9009 105.585 41.9009C106.629 41.9009 107.464 42.8023 107.464 43.9127C107.464 45.0231 106.618 45.9313 105.585 45.9313Z" fill="#2C2E33"/>
<path d="M118.658 40.4942V41.3137C118.658 41.3137 117.977 40.288 116.426 40.288C114.875 40.288 113.271 41.4147 113.271 44.0889C113.271 46.7631 115.738 47.4692 116.123 47.4692C116.509 47.4692 117.718 47.5866 118.624 46.6784V47.3845H120.352V40.4942H118.658ZM116.863 45.9313C115.825 45.9313 114.984 45.0299 114.984 43.9195C114.984 42.8092 115.825 41.9009 116.863 41.9009C117.902 41.9009 118.743 42.8023 118.743 43.9127C118.743 45.0231 117.9 45.9313 116.863 45.9313Z" fill="#2C2E33"/>
<path d="M126.888 37.8706V41.3178C126.888 41.3178 126.207 40.2921 124.656 40.2921C123.105 40.2921 121.502 41.4189 121.502 44.0862C121.502 46.7536 123.969 47.4665 124.355 47.4665C124.74 47.4665 125.949 47.584 126.856 46.6757V47.3818H128.584V37.8706H126.888ZM125.093 45.9287C124.055 45.9287 123.214 45.0272 123.214 43.9169C123.214 42.8065 124.055 41.901 125.093 41.901C126.132 41.901 126.973 42.8024 126.973 43.9128C126.973 45.0231 126.131 45.9314 125.093 45.9314V45.9287Z" fill="#2C2E33"/>
<path d="M110.466 37.8036H112.221V47.3777H110.45C110.45 47.3777 110.455 37.7927 110.466 37.8036Z" fill="#2C2E33"/>
<path d="M130.104 40.4723H131.861V47.3776H130.089C130.089 47.3776 130.093 40.46 130.104 40.4723Z" fill="#2C2E33"/>
<path d="M131.022 39.5546C131.511 39.5546 131.907 39.1571 131.907 38.6668C131.907 38.1765 131.511 37.7791 131.022 37.7791C130.532 37.7791 130.136 38.1765 130.136 38.6668C130.136 39.1571 130.532 39.5546 131.022 39.5546Z" fill="#2C2E33"/>
<path d="M133.416 40.4833V47.3777H135.105V43.6669C135.105 43.6669 135.083 42.0184 136.704 41.8736C136.704 41.8736 137.795 41.6715 137.795 43.488V47.364H139.519V42.3557C139.519 42.3557 139.373 40.2934 137.27 40.2934C136.879 40.2776 136.489 40.3442 136.125 40.4889C135.761 40.6336 135.432 40.8531 135.158 41.1334V40.4942C135.158 40.4942 133.438 40.5051 133.416 40.4833Z" fill="#2C2E33"/>
<path d="M30.4937 40.4779V47.3723H32.1822V43.4197C32.1822 43.4197 32.2994 41.8559 33.793 41.8559C33.793 41.8559 34.8506 41.9228 34.8506 43.3187V47.3545H36.6127V43.32C36.6127 43.32 36.8471 41.8177 38.139 41.8177C39.431 41.8177 39.2797 43.1835 39.2797 43.1835V47.3368H40.975V42.42C40.975 42.42 40.8238 40.2921 38.8068 40.2921C36.7898 40.2921 36.4069 41.5363 36.4069 41.5363C36.1991 41.1621 35.8948 40.8506 35.5259 40.6344C35.157 40.4182 34.7369 40.3052 34.3095 40.3071C32.8104 40.3071 32.1958 41.3164 32.1958 41.3164V40.4751C32.1958 40.4751 30.4937 40.4601 30.4937 40.4779Z" fill="#2C2E33"/>
<path d="M42.4863 40.4942H44.198V47.3558H42.5013C42.5013 47.3558 42.5272 40.4519 42.4863 40.4942Z" fill="#2C2E33"/>
<path d="M48.9105 42.4623L49.9339 41.4708C49.9339 41.4708 49.2962 40.2935 47.6022 40.2935C45.9082 40.2935 45.5716 41.6893 45.5716 41.6893C45.5716 41.6893 45.051 43.2025 46.6455 44.0766C48.24 44.9507 48.642 45.019 48.4403 45.6568C48.2386 46.2947 46.914 46.027 46.2925 45.2471L45.269 46.3575C45.269 46.3575 46.1412 47.6358 47.669 47.5184C49.1967 47.4009 49.6491 46.6443 49.6491 46.6443C49.8925 46.341 50.0453 45.9748 50.0899 45.5882C50.1345 45.2015 50.0691 44.8101 49.9012 44.4591C49.9012 44.4591 49.4815 43.5672 47.8039 42.9294C47.8039 42.9294 46.73 42.6098 47.2329 41.9734C47.7357 41.3369 48.9105 42.4623 48.9105 42.4623Z" fill="#2C2E33"/>
<path d="M51.6963 37.9402H53.3889V40.4628H54.3783V41.9651H53.3753V47.3462H51.7304V41.9747H50.79V40.4723H51.68C51.68 40.4723 51.68 37.921 51.6963 37.9402Z" fill="#2C2E33"/>
<path d="M58.6264 40.2921C58.6264 40.2921 55.0518 40.258 55.0518 43.9579C55.0518 47.6577 58.76 47.5731 58.76 47.5731C58.76 47.5731 60.8042 47.6577 61.7295 46.0707L60.3395 45.3373C60.3395 45.3373 59.9197 45.9929 58.7627 46.0434C58.2716 46.0812 57.7839 45.9356 57.3936 45.6345C57.0033 45.3333 56.7381 44.8981 56.649 44.4127L62.2024 44.3785C62.2024 44.3785 62.5363 40.4601 58.6264 40.2921ZM56.7471 43.0496C56.8853 42.6636 57.1412 42.3309 57.4784 42.0985C57.8157 41.8662 58.2173 41.7459 58.6264 41.7549C59.0377 41.7487 59.4402 41.8742 59.7753 42.1133C60.1104 42.3523 60.3605 42.6923 60.4894 43.0838L56.7471 43.0496Z" fill="#2C2E33"/>
<path d="M63.2012 40.4943H64.6785V41.3014C64.6785 41.3014 65.4675 39.8209 66.8767 40.482L66.3561 41.9843C66.3561 41.9843 65.4021 41.2113 64.9469 42.8926V47.3491H63.2584C63.2584 47.3491 63.2243 40.4943 63.2012 40.4943Z" fill="#2C2E33"/>
<path d="M43.4024 39.5546C43.8917 39.5546 44.2883 39.1571 44.2883 38.6668C44.2883 38.1765 43.8917 37.7791 43.4024 37.7791C42.9132 37.7791 42.5166 38.1765 42.5166 38.6668C42.5166 39.1571 42.9132 39.5546 43.4024 39.5546Z" fill="#2C2E33"/>
<path d="M76.7734 34.9806C76.7722 35.4339 76.8607 35.8828 77.0339 36.3015C77.207 36.7202 77.4612 37.1004 77.7819 37.4199L78.3938 38.0331C79.9502 36.5739 81.9997 35.7587 84.131 35.7514C86.2623 35.744 88.3174 36.545 89.8837 37.9935L90.497 37.3789C91.201 36.6715 92.1413 36.2502 93.1367 36.1962L86.3908 29.437C85.7989 28.8439 84.9962 28.5107 84.1592 28.5107C83.3222 28.5107 82.5195 28.8439 81.9276 29.437L76.8007 34.575C76.7838 34.7096 76.7747 34.845 76.7734 34.9806Z" fill="#2C2E33"/>
<path d="M74.9432 51.6171C75.3954 51.6183 75.8434 51.5296 76.2612 51.3561C76.679 51.1826 77.0583 50.9278 77.3772 50.6064L77.9891 49.9932C76.533 48.4335 75.7196 46.3794 75.7122 44.2435C75.7049 42.1076 76.5042 40.0481 77.9496 38.4784L77.3363 37.8638C76.6304 37.1582 76.21 36.2159 76.1561 35.2183L69.4115 41.9775C68.8198 42.5706 68.4873 43.3751 68.4873 44.2139C68.4873 45.0527 68.8198 45.8572 69.4115 46.4504L74.5384 51.5884C74.6727 51.6058 74.8078 51.6154 74.9432 51.6171Z" fill="#2C2E33"/>
<path d="M91.5479 53.4513C91.5491 52.9981 91.4606 52.5491 91.2875 52.1304C91.1143 51.7117 90.8601 51.3316 90.5394 51.012L89.9275 50.3988C88.3712 51.8581 86.3216 52.6732 84.1903 52.6806C82.059 52.6879 80.0039 51.8869 78.4376 50.4384L77.8243 51.053C77.1203 51.7604 76.18 52.1817 75.1846 52.2358L81.9291 58.995C82.521 59.588 83.3237 59.9212 84.1607 59.9212C84.9977 59.9212 85.8004 59.588 86.3923 58.995L91.5192 53.8569C91.5366 53.7224 91.5462 53.587 91.5479 53.4513Z" fill="#2C2E33"/>
<path d="M98.9068 41.9802L93.7799 36.8476C93.6443 36.8309 93.5077 36.8223 93.3711 36.8217C92.9188 36.8204 92.4709 36.9092 92.0531 37.0826C91.6353 37.2561 91.256 37.5109 90.9371 37.8323L90.3252 38.4456C91.7813 40.0053 92.5947 42.0593 92.602 44.1952C92.6094 46.3311 91.8101 48.3907 90.3647 49.9604L90.978 50.575C91.6839 51.2805 92.1042 52.2229 92.1582 53.2205L98.9068 46.4531C99.4986 45.8599 99.831 45.0554 99.831 44.2166C99.831 43.3778 99.4986 42.5734 98.9068 41.9802Z" fill="#2C2E33"/>
<path d="M80.9028 38.2858C80.9028 38.2858 83.0002 38.2598 84.1736 39.362C85.0929 38.6413 86.2281 38.2529 87.3953 38.2598C86.4536 37.6116 85.3405 37.2593 84.1981 37.2478C82.3351 37.2478 80.9028 38.2858 80.9028 38.2858Z" fill="#2C2E33"/>
<path d="M83.9337 39.4426C83.9337 39.4426 82.3869 38.264 80.3904 38.5713C79.479 39.2856 78.8122 40.2665 78.4824 41.3779C78.4824 41.3779 80.9791 39.7472 83.9337 39.4426Z" fill="#2C2E33"/>
<path d="M84.4062 39.4522C84.4062 39.4522 85.9149 38.2599 87.9223 38.5289C87.9223 38.5289 89.2143 39.4522 89.9038 41.397C88.2058 40.4164 86.3423 39.7571 84.4062 39.4522Z" fill="#2C2E33"/>
<path d="M78.4223 41.6565C78.4223 41.6565 81.0117 39.978 84.138 39.6324C84.138 39.6324 87.1552 40.0299 89.8536 41.5937C89.8536 41.5937 90.1602 42.3107 90.3646 43.7216C90.3646 43.7216 85.6207 42.0553 84.1502 41.453C84.1502 41.453 79.8928 43.1452 78.0762 43.6697C78.0775 43.6683 78.2438 41.9515 78.4223 41.6565Z" fill="#2C2E33"/>
<path d="M83.0503 42.0799C83.0503 42.0799 83.9198 41.7985 84.0983 41.6702C84.4521 41.8278 84.8164 41.9606 85.1885 42.0676L84.2169 42.7341L83.0503 42.0799Z" fill="#2C2E33"/>
<path d="M77.8594 43.6301C77.8594 43.6301 77.8594 42.9896 78.0134 42.6181L77.1821 41.5801L77.8594 43.6301Z" fill="#2C2E33"/>
<path d="M90.3208 42.6685C90.4183 42.9683 90.4827 43.2779 90.513 43.5918L91.2039 41.606L90.3208 42.6685Z" fill="#2C2E33"/>
<path d="M81.7205 45.7962C81.651 45.7939 81.5832 45.7739 81.5236 45.7381C81.4639 45.7022 81.4144 45.6518 81.3796 45.5914C81.3449 45.531 81.3261 45.4628 81.325 45.3931C81.3239 45.3234 81.3406 45.2546 81.3734 45.1931C81.4063 45.1317 81.4542 45.0797 81.5127 45.042C81.5712 45.0043 81.6384 44.9822 81.7078 44.9778C81.7772 44.9733 81.8466 44.9867 81.9094 45.0166C81.9722 45.0465 82.0263 45.092 82.0667 45.1488C82.0112 44.9494 81.8855 44.7769 81.7129 44.6633C81.5403 44.5496 81.3324 44.5024 81.1278 44.5305C80.9231 44.5586 80.7355 44.66 80.5998 44.816C80.464 44.9719 80.3892 45.1719 80.3892 45.3789C80.3892 45.5859 80.464 45.7859 80.5998 45.9419C80.7355 46.0979 80.9231 46.1993 81.1278 46.2273C81.3324 46.2554 81.5403 46.2083 81.7129 46.0946C81.8855 45.9809 82.0112 45.8084 82.0667 45.6091C82.0293 45.6669 81.978 45.7144 81.9175 45.7471C81.857 45.7798 81.7893 45.7967 81.7205 45.7962Z" fill="#2C2E33"/>
<path d="M87.2508 44.5232C87.0653 44.5238 86.885 44.5851 86.7374 44.6978C86.5898 44.8104 86.483 44.9683 86.4331 45.1474C86.4826 45.0755 86.5538 45.0214 86.6362 44.9929C86.7186 44.9644 86.808 44.9631 86.8912 44.9891C86.9744 45.0151 87.0472 45.0671 87.0988 45.1375C87.1505 45.2078 87.1783 45.2929 87.1783 45.3803C87.1783 45.4676 87.1505 45.5527 87.0988 45.6231C87.0472 45.6934 86.9744 45.7454 86.8912 45.7714C86.808 45.7974 86.7186 45.7961 86.6362 45.7676C86.5538 45.7391 86.4826 45.685 86.4331 45.6131C86.4772 45.7658 86.5629 45.9031 86.6805 46.0097C86.7981 46.1163 86.9431 46.1879 87.0991 46.2165C87.2551 46.2451 87.416 46.2296 87.5636 46.1716C87.7113 46.1137 87.8399 46.0156 87.9351 45.8885C88.0303 45.7613 88.0882 45.6101 88.1023 45.4518C88.1165 45.2935 88.0863 45.1344 88.0153 44.9923C87.9442 44.8502 87.835 44.7308 87.7 44.6475C87.5649 44.5641 87.4094 44.5202 87.2508 44.5205V44.5232Z" fill="#2C2E33"/>
<path d="M88.2538 48.3201C88.2538 48.3201 88.1557 47.6373 87.556 47.6086C87.4507 47.5914 87.3428 47.6162 87.2554 47.6778C87.1681 47.7393 87.1082 47.8326 87.0886 47.9377C87.3203 47.7793 87.4606 47.823 87.4606 47.823C87.4606 47.823 87.939 47.92 87.7536 48.3693C87.5683 48.8186 86.3908 48.6793 86.3908 48.6793C86.3908 48.6793 85.5254 48.5154 84.9749 48.6479C84.5208 48.7323 84.0552 48.7323 83.6011 48.6479C83.056 48.5114 82.1852 48.6793 82.1852 48.6793C82.1852 48.6793 81.0132 48.8227 80.8224 48.3693C80.6316 47.9159 81.1154 47.823 81.1154 47.823C81.1154 47.823 81.2517 47.7807 81.4874 47.9377C81.4678 47.8326 81.4079 47.7393 81.3206 47.6778C81.2332 47.6162 81.1254 47.5914 81.02 47.6086C80.4203 47.6427 80.3222 48.3201 80.3222 48.3201C80.3222 48.3201 80.1478 49.4278 81.7096 49.6941C83.2359 49.955 83.9364 49.7146 84.2812 49.5015C84.626 49.7146 85.3265 49.955 86.8528 49.6941C88.4282 49.4264 88.2538 48.3201 88.2538 48.3201Z" fill="#2C2E33"/>
<path d="M81.2611 46.5638C81.0155 46.5638 80.7755 46.4908 80.5713 46.3541C80.3671 46.2173 80.208 46.023 80.114 45.7957C80.0201 45.5683 79.9955 45.3182 80.0434 45.0768C80.0913 44.8354 80.2095 44.6137 80.3832 44.4397C80.5568 44.2657 80.778 44.1472 81.0188 44.0992C81.2597 44.0512 81.5093 44.0759 81.7362 44.17C81.963 44.2642 82.1569 44.4237 82.2933 44.6283C82.4298 44.8329 82.5026 45.0735 82.5026 45.3195C82.5022 45.6494 82.3713 45.9657 82.1385 46.1989C81.9058 46.4322 81.5902 46.5634 81.2611 46.5638ZM81.2611 44.2105C81.0425 44.2105 80.8288 44.2755 80.647 44.3972C80.4653 44.5189 80.3236 44.6919 80.2399 44.8943C80.1563 45.0967 80.1344 45.3194 80.177 45.5343C80.2197 45.7491 80.325 45.9465 80.4795 46.1014C80.6341 46.2563 80.831 46.3618 81.0454 46.4045C81.2598 46.4473 81.4821 46.4253 81.684 46.3415C81.886 46.2577 82.0586 46.1157 82.18 45.9335C82.3015 45.7514 82.3663 45.5372 82.3663 45.3182C82.3656 45.0248 82.2489 44.7436 82.0417 44.5362C81.8345 44.3289 81.5538 44.2123 81.2611 44.2119V44.2105Z" fill="#2C2E33"/>
<path d="M87.2288 46.5638C86.9833 46.5638 86.7432 46.4908 86.5391 46.3541C86.3349 46.2173 86.1758 46.023 86.0818 45.7957C85.9878 45.5683 85.9633 45.3182 86.0112 45.0768C86.0591 44.8354 86.1773 44.6137 86.3509 44.4397C86.5246 44.2657 86.7458 44.1472 86.9866 44.0992C87.2274 44.0512 87.4771 44.0759 87.7039 44.17C87.9308 44.2642 88.1247 44.4237 88.2611 44.6283C88.3975 44.8329 88.4703 45.0735 88.4703 45.3195C88.47 45.6494 88.3391 45.9657 88.1063 46.1989C87.8736 46.4322 87.558 46.5634 87.2288 46.5638ZM87.2288 44.2105C87.0102 44.2105 86.7965 44.2755 86.6148 44.3972C86.433 44.5189 86.2914 44.6919 86.2077 44.8943C86.1241 45.0967 86.1022 45.3194 86.1448 45.5343C86.1875 45.7491 86.2927 45.9465 86.4473 46.1014C86.6019 46.2563 86.7988 46.3618 87.0132 46.4045C87.2276 46.4473 87.4498 46.4253 87.6518 46.3415C87.8537 46.2577 88.0264 46.1157 88.1478 45.9335C88.2692 45.7514 88.3341 45.5372 88.3341 45.3182C88.3333 45.0248 88.2166 44.7436 88.0095 44.5362C87.8023 44.3289 87.5216 44.2123 87.2288 44.2119V44.2105Z" fill="#2C2E33"/>
</svg>
