<svg width="170" height="90" viewBox="0 0 170 90" fill="none" xmlns="http://www.w3.org/2000/svg">
<rect y="0.43335" width="170" height="89.3333" rx="40" fill="#FBEBD7"/>
<g clip-path="url(#clip0_2070_759)">
<path d="M47.5089 40.6137V43.9606H55.5861C55.3717 45.8121 54.7284 47.2364 53.7277 48.1621C52.584 49.3015 50.7255 50.5834 47.5089 50.5834C42.5768 50.5834 38.7169 46.5955 38.7169 41.6818C38.7169 36.7682 42.5054 32.7803 47.5089 32.7803C50.1537 32.7803 52.1551 33.8485 53.5847 35.2015L55.9435 32.8515C53.9421 30.9288 51.2259 29.4333 47.5089 29.4333C40.7184 29.4333 35 34.9167 35 41.6818C35 48.447 40.7184 53.9303 47.5089 53.9303C51.1544 53.9303 53.9421 52.7197 56.0865 50.5121C58.3024 48.3046 59.0172 45.1712 59.0172 42.6788C59.0172 41.8955 58.9457 41.1833 58.8742 40.6137H47.5089Z" fill="#2C2E33"/>
<path d="M69.0243 37.8364C64.664 37.8364 61.0186 41.1833 61.0186 45.7409C61.0186 50.2985 64.5925 53.6455 69.0243 53.6455C73.456 53.6455 77.03 50.3697 77.03 45.8121C77.03 41.1833 73.456 37.8364 69.0243 37.8364ZM69.0243 50.5833C66.594 50.5833 64.5211 48.5894 64.5211 45.8121C64.5211 42.9636 66.594 41.0409 69.0243 41.0409C71.4546 41.0409 73.5275 42.9636 73.5275 45.8121C73.5275 48.5894 71.4546 50.5833 69.0243 50.5833Z" fill="#2C2E33"/>
<path d="M108.124 39.6167H107.981C107.194 38.6909 105.693 37.8364 103.763 37.8364C99.7606 37.8364 96.3296 41.2545 96.3296 45.7409C96.3296 50.1561 99.7606 53.6455 103.763 53.6455C105.693 53.6455 107.194 52.7909 107.981 51.8652H108.124V53.0045C108.124 55.9955 106.48 57.6333 103.906 57.6333C101.762 57.6333 100.475 56.1379 99.9036 54.7848L96.9014 56.0667C97.7592 58.1318 100.118 60.7667 103.978 60.7667C108.052 60.7667 111.555 58.3455 111.555 52.5061V38.2636H108.267V39.6167H108.124ZM104.121 50.5833C101.691 50.5833 99.9036 48.5182 99.9036 45.8121C99.9036 43.0348 101.762 41.0409 104.121 41.0409C106.48 41.0409 108.338 43.1061 108.338 45.8833C108.41 48.5894 106.551 50.5833 104.121 50.5833Z" fill="#2C2E33"/>
<path d="M86.8226 37.8364C82.4624 37.8364 78.8169 41.1833 78.8169 45.7409C78.8169 50.2985 82.3909 53.6455 86.8226 53.6455C91.2544 53.6455 94.8283 50.3697 94.8283 45.8121C94.8283 41.1833 91.2544 37.8364 86.8226 37.8364ZM86.8226 50.5833C84.3923 50.5833 82.3194 48.5894 82.3194 45.8121C82.3194 42.9636 84.3923 41.0409 86.8226 41.0409C89.2529 41.0409 91.3258 42.9636 91.3258 45.8121C91.3258 48.5894 89.2529 50.5833 86.8226 50.5833Z" fill="#2C2E33"/>
<path d="M114.199 29.7894H117.63V53.7167H114.199V29.7894Z" fill="#2C2E33"/>
<path d="M128.209 50.5833C126.422 50.5833 125.207 49.8 124.35 48.1621L135 43.8182L134.643 42.8924C133.999 41.1121 131.926 37.8364 127.852 37.8364C123.778 37.8364 120.347 41.0409 120.347 45.7409C120.347 50.1561 123.706 53.6455 128.209 53.6455C131.855 53.6455 133.928 51.4379 134.857 50.1561L132.141 48.3758C131.212 49.7288 129.996 50.5833 128.209 50.5833ZM127.995 40.8273C129.425 40.8273 130.64 41.5394 130.997 42.5364L123.849 45.5273C123.778 42.2515 126.208 40.8273 127.995 40.8273Z" fill="#2C2E33"/>
</g>
<defs>
<clipPath id="clip0_2070_759">
<rect width="100" height="31.3333" fill="white" transform="translate(35 29.4333)"/>
</clipPath>
</defs>
</svg>
