<svg width="170" height="88" viewBox="0 0 170 88" fill="none" xmlns="http://www.w3.org/2000/svg">
<rect y="0.43335" width="170" height="87.2" rx="40" fill="#FBEBD7"/>
<g clip-path="url(#clip0_2070_772)">
<path fill-rule="evenodd" clip-rule="evenodd" d="M134.331 37.0869C139.049 34.0739 144.978 33.4881 144.978 33.4881C144.978 33.4881 138.715 40.6856 137.17 43.9915C136.711 45.4561 137.671 46.6278 137.671 46.6278C137.671 46.6278 134.916 43.5312 134.331 37.0869Z" fill="#2C2E33"/>
<path fill-rule="evenodd" clip-rule="evenodd" d="M136.377 35.957C135.667 36.2918 134.999 36.6684 134.331 37.0869C134.623 40.3509 135.5 42.7361 136.252 44.3263C136.669 45.0795 137.045 45.6653 137.337 46.1256C137.17 45.8327 137.045 45.4143 137.003 44.954C136.628 43.4056 136.252 40.6856 136.377 35.957Z" fill="#2C2E33"/>
<path fill-rule="evenodd" clip-rule="evenodd" d="M130.114 39.8906C130.114 39.8906 129.822 38.8026 129.697 38.4678C129.404 37.6309 129.112 36.7521 129.112 35.2875C129.112 33.2789 132.536 31.1029 134.665 30.4333C134.081 37.7983 134.916 40.058 135.667 42.485C137.463 48.5109 141.596 49.3897 141.972 49.8081C140.928 49.5989 141.513 50.0592 141.513 50.0592C141.513 50.0592 139.843 48.8875 136.461 47.925C133.079 46.9626 130.448 46.837 128.862 45.9164C127.609 44.9958 127.567 44.2426 126.983 43.6986C125.062 42.0247 120.177 41.3133 120.177 41.3133L124.352 41.9829C124.352 41.9829 124.937 41.9829 125.605 41.7318C125.772 41.7318 126.231 41.1878 127.233 41.5226C127.651 41.6481 127.525 41.8155 128.736 42.1503C130.281 42.6106 130.114 39.8906 130.114 39.8906Z" fill="#2C2E33"/>
<path fill-rule="evenodd" clip-rule="evenodd" d="M26.6701 52.6118C26.6701 56.9219 29.9269 57.4241 31.5971 57.4241C32.0981 57.4241 32.4739 57.3822 32.4739 57.3822V55.2063C32.4739 55.2063 32.2651 55.2481 31.8894 55.2481C30.929 55.2481 29.1336 54.9133 29.1336 52.3607V46.5859H32.2234V44.5773H29.1336V40.8949H26.7537V44.6192H25V46.6278H26.6701V52.6118ZM34.7286 57.3404H37.1921V52.0678C37.1921 51.2727 37.2756 50.4776 37.4843 49.7663C38.0689 47.8413 39.5303 46.7533 41.0752 46.7533C41.4509 46.7533 41.785 46.837 41.785 46.837V44.4099C41.785 44.4099 41.4927 44.3681 41.1587 44.3681C39.1962 44.3681 37.6931 45.8327 37.1086 47.7158H37.0668C37.0668 47.7158 37.1086 47.2973 37.1086 46.7533V44.4936H34.7286V57.3404ZM42.6618 53.6998C42.6618 56.2942 44.833 57.6333 47.0459 57.6333C50.1357 57.6333 51.1795 55.0807 51.1795 55.0807H51.2213C51.2213 55.0807 51.1795 55.4992 51.1795 56.085V57.2986H53.476V49.1804C53.476 45.9164 51.6388 44.117 48.382 44.117C45.4175 44.117 43.5804 45.6653 43.5804 45.6653L44.5825 47.4647C44.5825 47.4647 46.1691 46.2093 48.1733 46.2093C49.8017 46.2093 51.0125 46.9207 51.0125 49.0549V49.2641H50.4697C48.2568 49.2641 42.6618 49.4315 42.6618 53.6998ZM45.1253 53.5742C45.1253 51.2727 48.4656 51.1472 50.3445 51.1472H50.9708V51.5656C50.9708 53.4906 49.6347 55.6666 47.547 55.6666C45.9603 55.6247 45.1253 54.6204 45.1253 53.5742ZM59.6555 57.3404H62.4948L67.2547 44.4518H64.666L61.5345 53.1558C61.2839 53.8672 61.1169 54.9133 61.0752 54.9133H61.0334C60.9917 54.9133 60.8664 53.8672 60.6159 53.1558L57.4843 44.4518H54.8539L59.6555 57.3404ZM67.881 50.8961C67.881 54.7041 70.6367 57.6333 74.6869 57.6333C77.7766 57.6333 79.6555 55.7921 79.6555 55.7921L78.6534 53.9927C78.6534 53.9927 77.0668 55.4992 74.8539 55.4992C72.5574 55.4992 70.5532 54.0764 70.428 51.2309H79.7808C79.7808 51.2309 79.8643 50.4776 79.8643 50.1429C79.8643 46.7952 77.9436 44.117 74.3111 44.117C70.6785 44.117 67.881 46.7952 67.881 50.8961ZM70.5115 49.3896C70.8873 47.2555 72.3904 46.0838 74.2693 46.0838C75.9395 46.0838 77.2756 47.1718 77.3591 49.3896H70.5115ZM82.1608 53.8253C82.1608 57.0475 84.2067 57.4241 85.6263 57.4241C86.0438 57.4241 86.4196 57.3822 86.4196 57.3822V55.2063C86.4196 55.2063 86.2109 55.2481 86.0021 55.2481C85.2505 55.2481 84.6242 54.9552 84.6242 53.4069V39.3466H82.1608V53.8253ZM87.547 50.8542C87.547 54.7878 90.6367 57.6333 94.4781 57.6333C98.3194 57.6333 101.409 54.7878 101.409 50.8542C101.409 46.9626 98.3194 44.117 94.4781 44.117C90.6367 44.117 87.547 46.9626 87.547 50.8542ZM90.0522 50.8542C90.0522 48.1761 92.0564 46.2512 94.4781 46.2512C96.8998 46.2512 98.904 48.1761 98.904 50.8542C98.904 53.5742 96.9415 55.4992 94.4781 55.4992C92.0564 55.4992 90.0522 53.5742 90.0522 50.8542ZM103.831 57.3404H106.294V51.2727H108.132L111.973 57.3404H114.854L110.094 50.1847V50.101L114.353 44.4099H111.555L108.09 49.1804H106.294V39.3466H103.831V57.3404ZM115.564 53.6998C115.564 56.2942 117.735 57.6333 119.948 57.6333C123.038 57.6333 124.081 55.0807 124.081 55.0807H124.123C124.123 55.0807 124.081 55.4992 124.081 56.085V57.2986H126.378V49.1804C126.378 45.9164 124.541 44.117 121.284 44.117C118.319 44.117 116.482 45.6653 116.482 45.6653L117.484 47.4647C117.484 47.4647 119.071 46.2093 121.075 46.2093C122.704 46.2093 123.914 46.9207 123.914 49.0549V49.2641H123.372C121.159 49.2641 115.564 49.4315 115.564 53.6998ZM118.069 53.5742C118.069 51.2727 121.409 51.1472 123.288 51.1472H123.914V51.5656C123.914 53.4906 122.578 55.6666 120.491 55.6666C118.862 55.6247 118.069 54.6204 118.069 53.5742Z" fill="#2C2E33"/>
</g>
<defs>
<clipPath id="clip0_2070_772">
<rect width="120" height="27.2" fill="white" transform="translate(25 30.4333)"/>
</clipPath>
</defs>
</svg>
