<svg width="170" height="89" viewBox="0 0 170 89" fill="none" xmlns="http://www.w3.org/2000/svg">
<rect y="0.175354" width="170" height="88.4828" rx="40" fill="#FBEBD7"/>
<g clip-path="url(#clip0_2070_783)">
<path fill-rule="evenodd" clip-rule="evenodd" d="M89.1479 49.4154C87.8436 50.7445 86.2844 51.4131 84.4761 51.4131C83.0138 51.4131 81.7716 51.1136 80.5037 50.3729V47.324C81.5233 48.0192 82.8044 48.6813 84.069 48.6813C86.7057 48.6813 88.2756 46.8581 88.2756 44.2727C88.2756 41.6857 86.6519 39.8079 84.0135 39.8079C82.8359 39.8079 81.8808 40.2333 81.1344 41.0865C80.3349 42.0109 79.9211 43.3326 79.9211 45.0788V57.1177H79.7225C79.3761 57.1168 79.0333 57.0477 78.7137 56.9144C78.394 56.781 78.1037 56.586 77.8594 56.3405C77.6151 56.095 77.4216 55.8037 77.2898 55.4834C77.1581 55.1631 77.0907 54.8199 77.0916 54.4736V44.6278C77.0916 40.4493 79.6331 37.076 84.0019 37.076C86.1578 37.076 87.9098 37.8167 89.2381 39.3064C90.4869 40.6976 91.1051 42.4603 91.1051 44.5822C91.1051 46.4691 90.4521 48.0838 89.1479 49.4154ZM119.787 49.3127C118.487 50.7138 116.816 51.4131 114.79 51.4131C112.65 51.4131 110.907 50.6716 109.58 49.1828C108.332 47.7743 107.713 46.0098 107.713 43.9078C107.713 40.1861 110.571 37.076 114.332 37.076C115.783 37.076 117.042 37.3839 118.314 38.0857V41.1643C117.295 40.4691 116.014 39.8071 114.749 39.8071C112.113 39.8071 110.542 41.6311 110.542 44.2173C110.542 46.7679 112.204 48.6821 114.804 48.6821C115.981 48.6821 116.951 48.2385 117.725 47.3456C118.497 46.4576 118.897 45.1533 118.897 43.4021V33.8195C118.896 33.4731 118.964 33.13 119.095 32.8097C119.227 32.4893 119.421 32.1981 119.665 31.9525C119.909 31.707 120.2 31.512 120.519 31.3787C120.839 31.2453 121.182 31.1762 121.528 31.1754H121.727V43.8515C121.727 46.0835 121.084 47.9108 119.787 49.3127ZM127.777 35.7229C127.48 36.0573 127.055 36.2112 126.536 36.2112C125.564 36.2112 124.869 35.4912 124.869 34.5221C124.869 33.5307 125.551 32.8611 126.535 32.8611C127.482 32.8611 128.202 33.5671 128.202 34.5221C128.202 34.9938 128.064 35.4002 127.777 35.7229ZM142.156 43.4021C142.156 42.2807 141.734 41.3927 140.886 40.7207C140.122 40.1158 139.168 39.8079 138.007 39.8079C135.446 39.8079 133.801 41.8198 133.801 44.3017C133.801 46.6893 135.545 48.6821 137.98 48.6821C139.675 48.6821 140.58 47.6874 141.546 46.4476V50.0203C141.054 50.3911 140.488 50.7958 139.91 51.0325C139.3 51.289 138.572 51.4131 137.73 51.4131C133.658 51.4131 130.972 48.0225 130.972 44.1047C130.972 42.0929 131.593 40.4294 132.845 39.1326C134.174 37.758 135.916 37.076 138.049 37.076C142.093 37.076 144.986 39.4098 144.986 43.6264V51.1326H144.787C144.441 51.1317 144.098 51.0626 143.778 50.9292C143.458 50.7958 143.168 50.6008 142.924 50.3552C142.679 50.1096 142.486 49.8182 142.354 49.4978C142.222 49.1774 142.155 48.8341 142.156 48.4876V43.4021ZM103.418 42.596C103.06 41.4846 102.612 40.9376 101.581 40.3591C99.1286 38.982 96.7145 40.1547 95.5923 42.5853L103.418 42.596ZM101.259 51.3709C99.4513 51.7574 97.6778 51.4595 95.9473 50.4879C94.259 49.5403 93.1294 48.1318 92.5625 46.2697C91.4171 42.5042 93.7633 38.3083 97.5379 37.2929C99.4083 36.7889 101.202 37.0173 102.906 37.974C105.737 39.5646 106.768 42.0242 106.588 45.1938L95.1876 45.1698C95.3556 46.4625 96.1526 47.4738 97.2731 48.1028C98.4102 48.7409 99.4546 48.894 100.424 48.5911C101.5 48.2518 102.374 47.3687 103.084 46.5469L105.407 48.2485C104.459 49.9533 103.169 50.9629 101.259 51.3709ZM125.121 37.3574H127.95V51.1326H127.751C127.405 51.1317 127.062 51.0626 126.742 50.9292C126.423 50.7958 126.132 50.6007 125.888 50.3551C125.644 50.1095 125.45 49.8181 125.319 49.4977C125.187 49.1773 125.12 48.8341 125.121 48.4876V37.3574ZM29.1413 51.1318C26.373 51.1318 25 49.2399 25 46.5982V36.5737C24.9991 36.2272 25.0665 35.884 25.1983 35.5635C25.3301 35.2431 25.5237 34.9518 25.7681 34.7062C26.0125 34.4606 26.3028 34.2655 26.6226 34.1321C26.9424 33.9987 27.2853 33.9296 27.6317 33.9287H27.8304V37.3574H32.6113V40.0885H27.8304V46.9144C27.8304 48.0747 28.3451 48.4007 29.4491 48.4007H32.6105V51.1318H29.1413ZM45.5755 49.3914C44.1768 50.7378 42.4968 51.4131 40.5454 51.4131C38.6113 51.4131 36.9404 50.737 35.5426 49.3914C34.1399 48.0391 33.4406 46.3185 33.4406 44.2446C33.4406 40.1994 36.5142 37.076 40.5454 37.076C42.4795 37.076 44.1553 37.7571 45.5614 39.1136C46.9732 40.4733 47.6784 42.1889 47.6784 44.2446C47.6784 46.3185 46.9782 48.0391 45.5763 49.3914H45.5755ZM58.8069 40.6719C58.3915 41.3712 58.0695 41.8736 57.8428 42.1765C57.5937 42.5058 57.347 42.769 57.1029 42.9511C59.0693 43.59 59.8017 44.9588 59.8017 46.9988V51.1318H59.603C58.9035 51.13 58.2332 50.8505 57.7397 50.3546C57.2462 49.8588 56.9698 49.1872 56.9713 48.4876V47.2794C56.9713 45.9585 56.3821 45.0622 54.9901 45.0622H52.4179V51.1318H52.2193C51.52 51.1298 50.85 50.8501 50.3568 50.3543C49.8636 49.8584 49.5875 49.187 49.5893 48.4876V33.8195C49.5883 33.4732 49.6555 33.13 49.7872 32.8097C49.9188 32.4894 50.1123 32.1981 50.3565 31.9526C50.6008 31.7071 50.891 31.512 51.2106 31.3787C51.5302 31.2453 51.873 31.1762 52.2193 31.1754H52.4179V42.3031H53.2546C54.1733 42.3031 54.7774 41.9869 55.125 41.3894L57.501 37.3583L60.7261 37.3549L58.8053 40.6719H58.8069ZM73.4138 49.3914C72.0152 50.7378 70.3352 51.4131 68.3837 51.4131C66.4497 51.4131 64.7796 50.737 63.381 49.3914C61.9782 48.0391 61.2789 46.3185 61.2789 44.2446C61.2789 40.1994 64.3526 37.076 68.3837 37.076C70.3186 37.076 71.9937 37.7571 73.4006 39.1136C74.8116 40.4733 75.5167 42.1889 75.5167 44.2446C75.5167 46.3185 74.8157 48.0391 73.4138 49.3914ZM71.3713 41.0394C70.5917 40.2192 69.6011 39.8079 68.3837 39.8079C65.7793 39.8079 64.221 41.7155 64.221 44.2446C64.221 46.7389 65.8166 48.6821 68.3837 48.6821C70.9517 48.6821 72.5465 46.7389 72.5465 44.2446C72.5465 42.9205 72.1509 41.8578 71.3713 41.0394ZM43.5338 41.0394C42.7542 40.2192 41.7628 39.8079 40.5462 39.8079C37.9418 39.8079 36.3835 41.7155 36.3835 44.2446C36.3835 46.7389 37.979 48.6821 40.5462 48.6821C43.1134 48.6821 44.709 46.7389 44.709 44.2446C44.709 42.9205 44.3134 41.8578 43.5338 41.0394Z" fill="#2C2E33"/>
</g>
<defs>
<clipPath id="clip0_2070_783">
<rect width="120" height="26.4828" fill="white" transform="translate(25 31.1754)"/>
</clipPath>
</defs>
</svg>
