<svg width="170" height="90" viewBox="0 0 170 90" fill="none" xmlns="http://www.w3.org/2000/svg">
<rect y="0.833374" width="170" height="89.1667" rx="40" fill="#FBEBD7"/>
<g clip-path="url(#clip0_2070_806)">
<path d="M62.767 37.0656H67.5306C67.6701 37.0656 67.7697 37.1855 67.7697 37.3054V52.8088C67.7697 52.9486 67.6501 53.0485 67.5306 53.0485H62.767C62.6275 53.0485 62.5278 52.9286 62.5278 52.8088V37.3253C62.5278 37.1855 62.6275 37.0656 62.767 37.0656Z" fill="#2C2E33"/>
<path d="M81.3427 37.2254L78.1936 45.6165C78.1736 45.6564 78.1138 45.6564 78.0939 45.6165L74.9248 37.2254C74.885 37.1255 74.8053 37.0656 74.6857 37.0656H69.4637C69.2843 37.0656 69.1647 37.2454 69.2245 37.4052L75.5028 52.8887C75.5427 52.9886 75.6224 53.0485 75.742 53.0485H80.3262C80.4258 53.0485 80.5255 52.9886 80.5654 52.8887L86.8636 37.4252C86.9234 37.2654 86.8038 37.0856 86.6244 37.0856H81.542C81.4623 37.0656 81.3626 37.1455 81.3427 37.2254Z" fill="#2C2E33"/>
<path d="M131.39 36.8259C126.407 36.8259 122.779 40.3421 122.779 45.077C122.779 49.812 126.407 53.3282 131.39 53.3282C136.313 53.3282 140 49.772 140 45.077C140 40.3621 136.332 36.8259 131.39 36.8259ZM131.39 48.833C129.436 48.833 128.141 47.3346 128.141 45.077C128.141 42.8195 129.436 41.3211 131.39 41.3211C133.323 41.3211 134.638 42.8195 134.638 45.077C134.638 47.3146 133.323 48.833 131.39 48.833Z" fill="#2C2E33"/>
<path d="M60.7736 37.0057C60.6341 36.9657 60.4547 36.9258 60.2753 36.8858C59.9763 36.8459 56.7275 36.4663 54.9337 38.9037C54.8939 38.9436 54.8341 38.9236 54.8341 38.8637V37.5851V37.3254C54.8341 37.1855 54.7145 37.0856 54.5949 37.0856H49.8114C49.6719 37.0856 49.5723 37.2055 49.5723 37.3254V52.8088C49.5723 52.9486 49.6919 53.0485 49.8114 53.0485H54.575C54.7145 53.0485 54.8142 52.9287 54.8142 52.8088V47.0549C54.8142 42.7595 56.8073 41.6807 58.7605 41.6807C58.9997 41.6807 59.6574 41.6807 60.6141 41.9404C60.7736 41.9804 60.933 41.8605 60.933 41.7007V37.2255C60.933 37.1256 60.8732 37.0257 60.7736 37.0057Z" fill="#2C2E33"/>
<path d="M65.1585 29.8334C63.4843 29.8334 62.1489 31.132 62.1489 32.7503C62.1489 34.3685 63.5042 35.6671 65.1585 35.6671C66.8327 35.6671 68.1681 34.3685 68.1681 32.7503C68.1681 31.132 66.8128 29.8334 65.1585 29.8334Z" fill="#2C2E33"/>
<path d="M103.207 37.0656H98.4436C98.3041 37.0656 98.2044 37.1855 98.2044 37.3054V38.8237C98.2044 38.8837 98.1247 38.9036 98.1048 38.8437C96.3907 35.2276 86.166 35.9268 86.166 45.0371C86.166 53.548 94.8959 55.0664 98.1048 51.5102C98.1446 51.4702 98.2044 51.4902 98.2044 51.5501V52.7888C98.2044 52.9286 98.324 53.0285 98.4436 53.0285H103.207C103.347 53.0285 103.446 52.9087 103.446 52.7888V37.3253C103.446 37.1855 103.347 37.0656 103.207 37.0656ZM94.8759 48.813C92.7832 48.813 91.3083 47.3346 91.3083 45.077C91.3083 42.8195 92.7832 41.3011 94.8759 41.3011C97.0086 41.3011 98.4436 42.8394 98.4436 45.077C98.4436 47.3146 97.0086 48.813 94.8759 48.813Z" fill="#2C2E33"/>
<path d="M121.225 37.0656H116.461C116.322 37.0656 116.222 37.1855 116.222 37.3054V38.8237C116.222 38.8837 116.142 38.9036 116.123 38.8437C114.389 35.1876 104.881 36.1066 104.881 44.5776C104.881 52.8887 113.551 53.5879 116.142 51.1505C116.182 51.1106 116.242 51.1505 116.242 51.1905V51.9297C116.182 55.4659 111.758 56.9843 109.505 54.3072C109.426 54.2073 109.286 54.1873 109.186 54.2672L105.14 56.9244C105.021 57.0043 105.001 57.1641 105.081 57.284C110.223 64.3165 121.404 60.7403 121.484 52.0096V37.3253C121.484 37.1855 121.364 37.0656 121.225 37.0656ZM113.352 47.9739C111.459 47.9739 110.123 46.6554 110.123 44.5976C110.123 42.5398 111.439 41.2012 113.352 41.2012C115.285 41.2012 116.581 42.5797 116.581 44.5976C116.581 46.6154 115.285 47.9739 113.352 47.9739Z" fill="#2C2E33"/>
<path d="M47.8982 44.3179H43.1147C42.9951 44.3179 42.8755 44.4178 42.8755 44.5576C42.7161 46.5155 41.0817 48.0738 39.0886 48.0738C36.6769 48.0539 35.7003 46.016 35.7003 46.016C35.2818 45.2369 35.2618 44.4777 35.2618 44.3179C35.2618 44.2979 35.2818 44.2779 35.2818 44.2779L36.657 43.5187L45.3071 38.7238C45.4466 38.6439 45.5264 38.5041 45.5264 38.3642V33.2097C45.5264 33.0299 45.3271 32.9101 45.1676 32.99L35.3415 38.4242C35.3017 38.4441 35.2618 38.4242 35.2618 38.3842V30.2729C35.2618 30.0731 35.0426 29.9532 34.8831 30.0731L30.1794 33.1098C30.0598 33.1898 30 33.3096 30 33.4495V44.2979C30.0399 49.2925 34.0859 53.3282 39.0687 53.3282C43.9717 53.3282 47.958 49.4324 48.1373 44.5576C48.1573 44.4377 48.0377 44.3179 47.8982 44.3179Z" fill="#2C2E33"/>
</g>
<defs>
<clipPath id="clip0_2070_806">
<rect width="110" height="31.1667" fill="white" transform="translate(30 29.8334)"/>
</clipPath>
</defs>
</svg>
