<svg width="628" height="90" viewBox="0 0 628 90" fill="none" xmlns="http://www.w3.org/2000/svg">
<circle cx="327.727" cy="316.146" r="300" fill="#808080"/>
<path d="M625.727 317.146C633.327 189.946 545.227 100.146 500.227 71.1458C560.627 413.946 277.727 526.312 128.727 539.646C230.227 634.146 386.727 623.646 456.727 585.646C526.727 547.646 616.227 476.146 625.727 317.146Z" fill="#060606" fill-opacity="0.05"/>
<path d="M292.222 18.6434C416.222 12.1445 447.224 43.6441 487.723 63.1443C101.223 68.1443 92.5669 353.055 93.7274 502.645C19.2275 411.646 15.6845 305.106 45.6095 216.639C76.7275 124.646 175.722 24.7492 292.222 18.6434Z" fill="#AFAFAF" fill-opacity="0.19"/>
<ellipse cx="295.727" cy="71.6458" rx="48" ry="20.5" fill="#5C5C5C"/>
<ellipse cx="201.115" cy="78.5677" rx="9.75011" ry="5.94729" transform="rotate(3.72218 201.115 78.5677)" fill="#5C5C5C"/>
</svg>
