<svg width="163" height="400" viewBox="0 0 163 400" fill="none" xmlns="http://www.w3.org/2000/svg">
<circle cx="200" cy="200" r="200" fill="#408AA3"/>
<path d="M195.69 12.4944C162.776 6.55158 128.833 18.2087 115.976 24.7801C87.1186 39.5294 135.976 31.0659 135.976 36.2087C135.976 41.3516 123.976 54.2087 135.976 60.4945C147.976 66.7802 217.976 17.923 195.69 12.4944Z" fill="#A9C348" stroke="#A9C348" stroke-linecap="round"/>
<path d="M52.8597 258.866C48.5714 227.143 10.2858 204.857 40.0026 184.866C76.288 156.866 206.86 161.723 139.146 236.866C71.4314 312.009 142.289 358.866 106.574 348.866C78.0028 340.866 58.8598 285.533 52.8597 258.866Z" fill="#A9C348" stroke="#A9C348" stroke-linecap="round"/>
<path d="M263.611 343.154C245.554 364.411 217.801 360.773 206.182 356.297C180.563 346.011 102.468 321.154 146.182 302.582C172.322 291.477 199.611 307.439 208.754 321.154C217.897 334.868 225.896 319.154 241.897 325.439C258.521 331.97 272.754 331.439 263.611 343.154Z" fill="#A9C348" stroke="#A9C348" stroke-linecap="round"/>
<path d="M145.714 120.571C124.457 156.914 72.6667 153.429 49.4286 147.143C11.4286 112.286 49.4286 96.2857 77.7143 80.5714C106 64.8571 172.286 75.1428 145.714 120.571Z" fill="#A9C348" stroke="#A9C348" stroke-linecap="round"/>
</svg>
