<svg width="228" height="152" viewBox="0 0 228 152" fill="none" xmlns="http://www.w3.org/2000/svg">
<ellipse cx="118.894" cy="42.693" rx="108.836" ry="108.836" fill="#808080"/>
<path d="M227.004 43.0558C229.762 -3.09044 197.8 -35.6686 181.475 -46.1893C203.387 78.1735 100.755 118.938 46.7002 123.776C83.5229 158.059 140.299 154.25 165.694 140.464C191.089 126.678 223.558 100.739 227.004 43.0558Z" fill="#060606" fill-opacity="0.05"/>
<path d="M106.014 -65.2365C150.999 -67.5942 162.246 -56.1666 176.939 -49.0922C36.7224 -47.2783 33.582 56.0829 34.003 110.352C6.97554 77.339 5.6902 38.6879 16.5465 6.59354C27.8357 -26.7804 63.7493 -63.0214 106.014 -65.2365Z" fill="#AFAFAF" fill-opacity="0.19"/>
<ellipse cx="116.355" cy="11.3121" rx="14.5114" ry="7.4371" fill="#5C5C5C"/>
<ellipse cx="152.996" cy="57.023" rx="14.5114" ry="7.4371" fill="#5C5C5C"/>
<ellipse cx="151.527" cy="123.66" rx="14.5114" ry="7.4371" transform="rotate(-15.0484 151.527 123.66)" fill="#5C5C5C"/>
<ellipse cx="89.8539" cy="49.6521" rx="14.5114" ry="7.4371" transform="rotate(-11.7786 89.8539 49.6521)" fill="#5C5C5C"/>
<ellipse cx="75.36" cy="100.92" rx="14.5114" ry="7.4371" fill="#5C5C5C"/>
<ellipse cx="29.7797" cy="57.3619" rx="14.5114" ry="7.4371" transform="rotate(-91.2375 29.7797 57.3619)" fill="#5C5C5C"/>
<ellipse cx="205.73" cy="56.9991" rx="14.5114" ry="7.4371" transform="rotate(-91.2375 205.73 56.9991)" fill="#5C5C5C"/>
<ellipse cx="182.481" cy="24.1381" rx="5.44178" ry="2.90228" transform="rotate(25.8248 182.481 24.1381)" fill="#5C5C5C"/>
<ellipse cx="125.156" cy="93.6968" rx="5.44178" ry="2.90228" transform="rotate(114.249 125.156 93.6968)" fill="#5C5C5C"/>
<ellipse cx="93.5826" cy="134.211" rx="5.44178" ry="2.90228" transform="rotate(-155.996 93.5826 134.211)" fill="#5C5C5C"/>
<ellipse cx="61.6377" cy="22.9677" rx="3.5372" ry="2.15759" transform="rotate(-69.2026 61.6377 22.9677)" fill="#5C5C5C"/>
<ellipse cx="45.0269" cy="81.6642" rx="3.5372" ry="2.15759" transform="rotate(3.72217 45.0269 81.6642)" fill="#5C5C5C"/>
</svg>
