<svg width="36" height="36" viewBox="0 0 36 36" fill="none" xmlns="http://www.w3.org/2000/svg">
<path d="M35.5002 18C35.5041 18.5127 35.3483 19.0139 35.0542 19.434C34.7602 19.854 34.3426 20.172 33.8595 20.3438L23.947 23.9485L20.3439 33.8594C20.1663 34.3378 19.8466 34.7505 19.4276 35.0419C19.0086 35.3333 18.5105 35.4894 18.0002 35.4894C17.4898 35.4894 16.9917 35.3333 16.5727 35.0419C16.1538 34.7505 15.834 34.3378 15.6564 33.8594L12.0517 23.9375L2.14078 20.3438C1.66234 20.1662 1.2497 19.8464 0.958316 19.4275C0.666928 19.0085 0.510742 18.5104 0.510742 18C0.510742 17.4897 0.666928 16.9916 0.958316 16.5726C1.2497 16.1536 1.66234 15.8339 2.14078 15.6563L12.0627 12.0516L15.6564 2.14066C15.834 1.66221 16.1538 1.24958 16.5727 0.958194C16.9917 0.666805 17.4898 0.51062 18.0002 0.51062C18.5105 0.51062 19.0086 0.666805 19.4276 0.958194C19.8466 1.24958 20.1663 1.66221 20.3439 2.14066L23.9486 12.0625L33.8595 15.6563C34.3426 15.828 34.7602 16.146 35.0542 16.5661C35.3483 16.9861 35.5041 17.4873 35.5002 18Z" fill="#F8F9FF"/>
</svg>
