<svg width="300" height="300" viewBox="0 0 300 300" fill="none" xmlns="http://www.w3.org/2000/svg">
<circle cx="150" cy="150" r="150" fill="#408AA3"/>
<path d="M146.768 9.37077C122.082 4.91362 96.625 13.6565 86.9822 18.5851C65.3394 29.647 101.982 23.2994 101.982 27.1565C101.982 31.0136 92.9822 40.6565 101.982 45.3708C110.982 50.0851 163.482 13.4422 146.768 9.37077Z" fill="#A9C348" stroke="#A9C348" stroke-linecap="round"/>
<path d="M183.905 172.126C199.505 169.04 201.834 178.554 201.048 183.697C181.763 229.126 212.191 238.769 218.191 251.626C224.191 264.483 268.548 219.911 258.262 201.697C247.977 183.483 278.191 176.84 285.477 141.483C292.762 106.126 257.834 72.4827 247.334 58.5541C238.934 47.4113 221.834 45.4827 214.334 45.9113C209.334 46.6256 201.905 50.497 212.191 60.2684C225.048 72.4827 194.191 74.6256 179.834 84.0541C165.477 93.4827 181.334 99.9114 194.191 91.7685C207.048 83.6257 210.262 100.34 226.762 96.0542C243.262 91.7685 249.477 104.411 241.548 113.84C233.62 123.269 219.691 123.911 205.762 113.84C191.834 103.769 155.191 115.983 150.691 140.411C146.191 164.84 164.405 175.983 183.905 172.126Z" fill="#A9C348" stroke="#A9C348" stroke-linecap="round"/>
<path d="M39.6448 194.149C36.4286 170.357 7.71432 153.643 30.0019 138.649C57.216 117.649 155.145 121.292 104.359 177.649C53.5735 234.007 106.716 269.149 79.9307 261.649C58.5021 255.649 44.1448 214.149 39.6448 194.149Z" fill="#A9C348" stroke="#A9C348" stroke-linecap="round"/>
<path d="M197.708 257.365C184.165 273.308 163.351 270.58 154.636 267.222C135.422 259.508 76.8505 240.865 109.636 226.937C129.241 218.608 149.708 230.58 156.565 240.865C163.422 251.151 169.422 239.365 181.422 244.08C193.89 248.978 204.565 248.58 197.708 257.365Z" fill="#A9C348" stroke="#A9C348" stroke-linecap="round"/>
<path d="M109.286 90.4284C93.343 117.686 54.5001 115.071 37.0715 110.357C8.57154 84.2141 37.0715 72.2141 58.2858 60.4284C79.5001 48.6427 129.214 56.357 109.286 90.4284Z" fill="#A9C348" stroke="#A9C348" stroke-linecap="round"/>
<path d="M175.072 75.6429C150.386 82.5001 141.929 100.5 140.786 108.643C133.5 130.714 128.143 101.786 140.786 79.7144C153.429 57.6429 205.929 67.0715 175.072 75.6429Z" fill="#A9C348" stroke="#A9C348" stroke-linecap="round"/>
<path d="M150 0C169.698 0 189.204 3.87985 207.403 11.4181C225.601 18.9563 242.137 30.0052 256.066 43.934C269.995 57.8628 281.044 74.3987 288.582 92.5975C296.12 110.796 300 130.302 300 150C300 169.698 296.12 189.204 288.582 207.403C281.044 225.601 269.995 242.137 256.066 256.066C242.137 269.995 225.601 281.044 207.403 288.582C189.204 296.12 169.698 300 150 300L150 150L150 0Z" fill="#36707B" fill-opacity="0.33"/>
</svg>
