<svg width="328" height="322" viewBox="0 0 328 322" fill="none" xmlns="http://www.w3.org/2000/svg">
<circle cx="171.103" cy="165.057" r="156.627" fill="#808080"/>
<path d="M326.686 165.579C330.654 99.1689 284.658 52.2852 261.164 37.1445C292.698 216.117 144.998 274.783 67.207 281.744C120.199 331.081 201.906 325.599 238.453 305.76C274.999 285.921 321.726 248.591 326.686 165.579Z" fill="#060606" fill-opacity="0.05"/>
<path d="M152.566 9.73345C217.305 6.34047 233.491 22.7861 254.635 32.967C52.8474 35.5774 48.328 184.326 48.9339 262.426C10.0382 214.916 8.18846 159.293 23.812 113.105C40.0584 65.0763 91.7423 12.9213 152.566 9.73345Z" fill="#AFAFAF" fill-opacity="0.19"/>
<ellipse cx="154.396" cy="37.4055" rx="25.0603" ry="10.7029" fill="#5C5C5C"/>
<ellipse cx="167.448" cy="119.896" rx="20.8836" ry="10.7028" fill="#5C5C5C"/>
<ellipse cx="220.18" cy="185.679" rx="20.8836" ry="10.7029" fill="#5C5C5C"/>
<ellipse cx="218.065" cy="281.578" rx="20.8836" ry="10.7029" transform="rotate(-15.0484 218.065 281.578)" fill="#5C5C5C"/>
<ellipse cx="129.31" cy="175.072" rx="20.8836" ry="10.7029" transform="rotate(-11.7786 129.31 175.072)" fill="#5C5C5C"/>
<ellipse cx="108.452" cy="248.852" rx="20.8836" ry="10.7029" fill="#5C5C5C"/>
<ellipse cx="42.8563" cy="186.167" rx="20.8836" ry="10.7029" transform="rotate(-91.2375 42.8563 186.167)" fill="#5C5C5C"/>
<ellipse cx="296.07" cy="185.645" rx="20.8836" ry="10.7028" transform="rotate(-91.2375 296.07 185.645)" fill="#5C5C5C"/>
<ellipse cx="259.718" cy="79.5028" rx="25.0603" ry="10.7029" transform="rotate(36.7216 259.718 79.5028)" fill="#5C5C5C"/>
<ellipse cx="79.6289" cy="78.6505" rx="18.968" ry="8.95689" transform="rotate(-40.0164 79.6289 78.6505)" fill="#5C5C5C"/>
<ellipse cx="262.611" cy="138.354" rx="7.83135" ry="4.17672" transform="rotate(25.8248 262.611 138.354)" fill="#5C5C5C"/>
<ellipse cx="180.114" cy="238.457" rx="7.83135" ry="4.17672" transform="rotate(114.249 180.114 238.457)" fill="#5C5C5C"/>
<ellipse cx="134.676" cy="296.761" rx="7.83135" ry="4.17672" transform="rotate(-155.996 134.676 296.761)" fill="#5C5C5C"/>
<ellipse cx="88.7043" cy="136.669" rx="5.09044" ry="3.10502" transform="rotate(-69.2026 88.7043 136.669)" fill="#5C5C5C"/>
<ellipse cx="196.888" cy="69.7344" rx="5.09044" ry="3.10503" transform="rotate(3.72218 196.888 69.7344)" fill="#5C5C5C"/>
<ellipse cx="64.799" cy="221.141" rx="5.09044" ry="3.10503" transform="rotate(3.72218 64.799 221.141)" fill="#5C5C5C"/>
<ellipse cx="105.001" cy="41.0195" rx="5.09044" ry="3.10502" transform="rotate(3.72218 105.001 41.0195)" fill="#5C5C5C"/>
</svg>
